<svg version="1.1" id="Layer_1" xmlns="http://www.w3.org/2000/svg" xmlns:xlink="http://www.w3.org/1999/xlink" x="0px" y="0px"
	 width="100%" viewBox="0 0 496 496" enable-background="new 0 0 496 496" xml:space="preserve">
<path fill="#000000" opacity="1.000000" stroke="none" 
	d="
M276.424805,158.230591 
	C286.305084,153.755722 296.399689,153.229233 306.623016,153.699005 
	C309.535004,153.832825 312.665649,154.582794 310.395020,158.399643 
	C305.494202,166.637665 303.070618,175.881180 299.157257,184.499496 
	C292.115143,200.008224 280.788513,209.567856 262.922943,209.553696 
	C261.754272,209.552765 260.584320,209.683075 258.932922,208.215363 
	C262.558228,195.254242 270.701691,185.191071 281.856567,176.322861 
	C266.195831,180.105469 257.929108,190.261887 253.608994,204.346115 
	C253.218765,205.618347 252.978989,206.993149 253.988144,208.143021 
	C259.980164,214.970520 256.789001,222.955734 256.182770,230.322906 
	C255.883270,233.962280 251.132706,231.925201 248.380402,232.229660 
	C246.129349,232.478683 244.999344,231.004501 244.965302,228.864044 
	C244.875320,223.204422 244.864227,217.543274 244.871216,211.882782 
	C244.871994,211.252106 244.995285,210.263351 245.393021,210.045563 
	C250.724640,207.125992 247.848633,203.174088 246.517212,199.737869 
	C241.984299,188.039185 233.877563,180.094727 221.285538,177.032104 
	C231.112061,185.678650 239.424820,195.311707 242.999451,208.790375 
	C238.404221,210.491196 233.942947,209.646133 229.742081,208.713470 
	C216.869186,205.855530 208.601425,197.277954 203.080948,185.807327 
	C198.757446,176.823853 196.314896,167.023544 191.089355,158.393021 
	C189.187576,155.252029 191.278503,153.903000 194.401443,153.672760 
	C216.538910,152.040588 235.091675,158.650665 248.530518,177.108398 
	C249.106750,177.899826 249.848038,178.571091 251.048859,179.885498 
	C257.814972,170.659180 265.331116,162.550308 276.424805,158.230591 
z"/>
<path fill="#000000" opacity="1.000000" stroke="none" 
	d="
M239.765106,284.668884 
	C237.891708,287.383759 236.422775,286.626526 234.830307,284.780182 
	C232.035141,281.539398 229.136047,278.388214 225.315338,274.121735 
	C225.315338,281.183289 225.416718,286.923309 225.288589,292.658203 
	C225.142410,299.200989 220.956253,304.981995 215.250778,306.823364 
	C211.914795,307.899994 209.720322,307.395630 209.743683,303.173950 
	C209.817383,289.855133 209.601929,276.531952 209.873749,263.218140 
	C210.022003,255.956192 214.570892,250.525513 220.813675,248.671280 
	C223.598969,247.843964 225.557877,248.365112 227.171860,250.911087 
	C230.192398,255.675888 233.410370,260.315521 236.808029,265.398926 
	C241.090546,261.729706 243.235519,257.001801 246.166702,252.905746 
	C249.359955,248.443466 257.475952,246.083160 262.480652,248.211441 
	C264.281067,248.977066 264.337982,250.405319 264.338593,251.900513 
	C264.344299,266.218658 264.453827,280.538849 264.237823,294.853943 
	C264.156952,300.214600 259.565369,305.304993 254.376251,306.869751 
	C250.850586,307.932922 248.940247,306.993103 248.969376,302.988739 
	C249.036880,293.709381 248.990845,284.429169 248.990845,273.863342 
	C245.472427,277.974396 242.724304,281.185394 239.765106,284.668884 
z"/>
<path fill="#000000" opacity="1.000000" stroke="none" 
	d="
M371.367554,255.812225 
	C372.428680,254.256378 373.156830,252.898163 374.212738,251.879807 
	C376.420593,249.750305 379.227600,247.684845 382.184204,248.641281 
	C385.385284,249.676819 384.043671,253.226151 384.071747,255.689621 
	C384.208252,267.672546 384.196594,279.658020 384.130249,291.642029 
	C384.096252,297.778961 382.484344,303.244232 376.423492,306.189362 
	C373.319977,307.697388 370.439178,308.671844 369.566742,303.498413 
	C368.971649,299.969513 365.968018,297.589203 363.917297,294.794037 
	C358.827026,287.855927 353.608185,281.012085 347.305542,274.415161 
	C347.305542,280.974487 347.436554,287.537140 347.271759,294.092316 
	C347.074158,301.951630 341.816772,307.217377 334.631012,307.041473 
	C333.397919,306.060699 333.702087,304.637573 333.699249,303.361084 
	C333.668549,289.545715 333.651428,275.730194 333.687622,261.914856 
	C333.702393,256.280731 336.094269,252.003815 341.218201,249.393188 
	C344.674652,247.632126 347.262238,247.959595 349.620361,251.563858 
	C354.903046,259.638428 360.558655,267.469208 366.075714,275.389984 
	C367.002380,276.720459 367.996094,278.004211 369.341034,279.827728 
	C370.744873,271.561035 368.261932,263.626831 371.367554,255.812225 
z"/>
<path fill="#000000" opacity="1.000000" stroke="none" 
	d="
M192.546356,305.945404 
	C187.702255,302.795868 185.645981,297.881897 182.605270,293.759003 
	C181.311096,292.004181 180.171066,290.115509 177.507599,290.440063 
	C174.563004,290.798920 175.246185,293.422302 174.724335,295.104828 
	C173.108200,300.315399 170.264648,304.348663 165.107788,306.502319 
	C161.885437,307.848145 159.906555,307.175079 159.909134,303.289612 
	C159.918320,289.476562 159.613525,275.653839 160.043671,261.853973 
	C160.321793,252.931793 166.262314,247.571930 175.119736,246.931519 
	C179.799179,246.593185 184.472717,246.945450 189.011063,247.978378 
	C195.987305,249.566177 201.057144,253.664505 203.116043,260.698792 
	C205.598221,269.179230 204.689957,277.170319 198.691498,284.095764 
	C197.613815,285.340027 196.301010,286.380615 194.659851,287.926849 
	C198.186157,293.419891 201.717712,298.921143 205.385834,304.635101 
	C201.165146,308.168304 197.116577,307.896667 192.546356,305.945404 
M188.381210,272.521545 
	C189.306870,268.224854 189.633759,264.042358 184.313934,262.394196 
	C177.260132,260.208801 175.326248,261.940399 175.334015,270.042206 
	C175.340271,276.570892 179.090393,278.815796 185.004623,275.727570 
	C186.129700,275.140076 186.996704,274.058411 188.381210,272.521545 
z"/>
<path fill="#000000" opacity="1.000000" stroke="none" 
	d="
M398.822754,303.948914 
	C397.671173,304.690155 396.852539,305.291046 395.942902,305.677887 
	C390.914948,307.816071 389.661438,307.059509 389.647705,301.711945 
	C389.611816,287.726959 389.595703,273.741516 389.677063,259.756866 
	C389.713013,253.578125 393.411865,249.069366 399.273865,247.289978 
	C402.544617,246.297134 404.077332,247.327530 404.085175,250.693863 
	C404.098694,256.482819 404.088928,262.271851 405.014648,268.379028 
	C407.981995,263.290253 410.850067,258.140198 413.941071,253.127670 
	C418.094238,246.392776 424.076569,244.989090 430.723907,249.348938 
	C428.758270,254.910995 425.570129,260.069092 422.059082,264.679260 
	C416.381226,272.134521 416.382751,278.449310 422.292847,285.736633 
	C426.238251,290.601410 428.855255,296.527893 432.235931,301.872223 
	C434.277069,305.098999 432.781189,306.385773 429.821747,307.112793 
	C424.413666,308.441345 419.061218,306.467194 415.865601,301.672638 
	C413.190765,297.659515 410.856049,293.421204 408.265503,289.349518 
	C407.441193,288.053894 407.141663,286.117096 404.435425,285.941589 
	C403.757233,292.163513 404.992279,299.126556 398.822754,303.948914 
z"/>
<path fill="#000000" opacity="1.000000" stroke="none" 
	d="
M148.504929,272.642456 
	C151.522079,284.074341 154.442566,295.109253 157.347549,306.085571 
	C150.039734,308.695709 143.702835,306.007690 141.596710,298.754883 
	C140.075165,293.515137 136.620651,294.438049 133.080887,294.321198 
	C129.651932,294.208008 126.902328,294.153595 125.548630,298.686249 
	C123.385727,305.928436 117.169533,308.643066 110.130569,306.269592 
	C110.008842,302.436554 111.600594,298.907227 112.558739,295.269012 
	C115.900444,282.580109 119.307121,269.908081 122.740913,257.243713 
	C124.434418,250.997742 128.090698,247.762238 133.319778,247.695496 
	C138.768387,247.625916 142.509888,250.880997 144.332062,257.360321 
	C145.724762,262.312500 147.051956,267.283081 148.504929,272.642456 
M130.771362,276.986633 
	C130.439926,278.721588 129.491745,280.411896 130.345581,282.346100 
	C132.626587,282.940521 134.841354,283.220581 137.239807,281.917603 
	C136.480347,277.358429 135.465836,272.934052 133.343857,267.619232 
	C132.386536,271.191925 131.707977,273.724335 130.771362,276.986633 
z"/>
<path fill="#000000" opacity="1.000000" stroke="none" 
	d="
M88.184532,248.036636 
	C94.155380,248.044876 99.650047,248.064438 105.144699,248.059631 
	C108.783096,248.056458 109.930779,249.670242 108.682823,253.138260 
	C106.837708,258.265747 103.496758,261.612549 97.959221,262.331573 
	C95.325150,262.673615 92.651382,262.956482 90.004425,262.893707 
	C86.255257,262.804840 84.167328,263.617920 84.212265,268.149109 
	C84.256516,272.611084 86.517929,272.973480 89.895027,272.836548 
	C93.053383,272.708527 96.222282,272.865967 99.384384,272.797821 
	C103.341461,272.712524 103.839424,274.883148 102.863098,278.004303 
	C101.400970,282.678528 96.935616,285.905396 91.476715,286.309570 
	C84.472679,286.828186 84.472679,286.828156 84.345291,294.022247 
	C84.222824,300.938507 80.311943,305.992188 74.068497,307.639526 
	C71.284279,308.374115 69.802711,307.630615 69.801796,304.704102 
	C69.797211,290.053040 69.450676,275.387238 70.008560,260.756531 
	C70.336472,252.156937 76.399216,248.331726 88.184532,248.036636 
z"/>
<path fill="#000000" opacity="1.000000" stroke="none" 
	d="
M147.003845,352.403625 
	C138.396118,352.375641 130.197586,353.302094 123.206627,347.414429 
	C117.569603,342.667053 114.116158,336.894684 113.035400,329.691162 
	C112.638168,327.043457 113.130653,324.154846 116.295418,323.985718 
	C119.599228,323.809143 123.809586,321.858551 125.832626,326.721161 
	C130.478394,337.887756 132.098755,338.997742 143.913910,339.016083 
	C157.061874,339.036499 170.209930,339.011169 183.357880,339.035950 
	C185.183411,339.039398 187.035034,339.053375 188.828430,339.345642 
	C192.547684,339.951843 195.140945,342.078918 194.893082,346.006470 
	C194.640656,350.006012 192.158508,352.300507 187.945312,352.310547 
	C174.464478,352.342743 160.983643,352.372620 147.003845,352.403625 
z"/>
<path fill="#000000" opacity="1.000000" stroke="none" 
	d="
M309.205841,351.063080 
	C304.658447,344.609375 306.554443,340.132996 313.799469,339.554169 
	C328.424805,338.385742 343.083099,339.219666 357.725861,339.055969 
	C369.128143,338.928497 371.416748,337.539307 375.379364,326.923706 
	C377.295197,321.791351 381.469757,323.900177 384.736420,323.971649 
	C387.956512,324.042175 388.383972,326.855103 388.158783,329.553833 
	C387.126465,341.926849 376.240997,352.259857 363.846039,352.337311 
	C347.531128,352.439270 331.214813,352.318390 314.899109,352.289917 
	C313.062103,352.286713 311.226227,352.255768 309.205841,351.063080 
z"/>
<path fill="#000000" opacity="1.000000" stroke="none" 
	d="
M274.654053,369.836914 
	C269.391785,373.100372 264.055939,374.509888 258.194977,374.312073 
	C252.375610,374.115692 246.543610,374.332153 240.718338,374.264648 
	C225.507675,374.088409 213.907654,360.776093 215.736771,345.656006 
	C216.257462,341.351807 217.761765,340.474945 221.726227,342.056305 
	C225.529785,343.573486 227.158035,346.649200 228.145233,350.375092 
	C230.227173,358.232727 233.534576,360.822418 241.557312,360.951080 
	C247.715103,361.049866 253.876160,361.110840 260.033569,361.026642 
	C267.998199,360.917725 271.559052,358.018494 273.531403,350.434418 
	C273.945648,348.841461 274.322845,347.135559 275.189301,345.784515 
	C277.110291,342.789124 280.229187,340.789612 283.586304,341.462585 
	C286.429657,342.032562 285.891205,345.693420 286.016418,347.928864 
	C286.535156,357.188354 282.084930,364.143127 274.654053,369.836914 
z"/>
<path fill="#000000" opacity="1.000000" stroke="none" 
	d="
M271.376007,306.954254 
	C269.939423,305.935120 269.811127,304.768158 269.810364,303.595032 
	C269.801178,289.616119 269.610138,275.633301 269.888489,261.659851 
	C270.046417,253.731750 275.719116,248.693329 283.398926,248.839981 
	C284.889740,250.320999 284.313019,252.254623 284.321716,254.001282 
	C284.377136,265.151123 284.513672,276.304993 284.265747,287.449554 
	C284.171539,291.684814 285.692322,293.019196 289.752075,292.792969 
	C294.563110,292.524963 299.401459,292.783875 304.226685,292.720032 
	C307.754669,292.673340 308.490936,294.233887 307.562744,297.454834 
	C305.940796,303.083344 301.530060,307.143219 295.763336,307.258606 
	C287.783752,307.418335 279.796570,307.195618 271.376007,306.954254 
z"/>
<path fill="#000000" opacity="1.000000" stroke="none" 
	d="
M180.725006,212.811951 
	C164.159805,214.502869 149.538773,219.933578 136.818832,230.098541 
	C134.899567,231.632324 132.936966,232.454361 130.450592,232.414719 
	C124.199165,232.315018 117.945091,232.381760 111.411964,232.381760 
	C119.585922,210.193817 183.973282,195.695633 202.852570,211.850616 
	C195.149597,212.164673 188.160065,212.449646 180.725006,212.811951 
z"/>
<path fill="#000000" opacity="1.000000" stroke="none" 
	d="
M357.254608,224.759277 
	C339.539612,213.543930 320.045685,211.577637 299.379486,212.243042 
	C315.480743,195.460495 378.273804,209.178604 390.676147,231.902710 
	C378.680939,232.714798 367.038574,234.541260 357.254608,224.759277 
z"/>
<path fill="#000000" opacity="1.000000" stroke="none" 
	d="
M237.633362,332.385925 
	C242.334717,337.764954 244.654617,343.682648 244.262619,350.500458 
	C244.114578,353.075256 244.383362,356.310974 241.046570,357.064972 
	C237.600327,357.843689 234.909195,355.966339 233.077972,353.108215 
	C232.384140,352.025238 232.062683,350.657349 231.765198,349.374390 
	C229.923309,341.431030 225.608047,337.739563 217.469589,337.478088 
	C214.818451,337.392914 212.125198,337.525330 209.500519,337.901855 
	C199.056152,339.400238 189.352127,334.256989 178.907990,335.191925 
	C180.294891,329.648102 185.979416,325.109253 192.459747,324.896851 
	C202.439835,324.569733 212.445892,324.571777 222.426239,324.891937 
	C228.291336,325.080078 233.231506,327.981323 237.633362,332.385925 
z"/>
<path fill="#000000" opacity="1.000000" stroke="none" 
	d="
M273.570343,326.142242 
	C286.141205,323.563568 298.455750,324.452240 310.681152,325.275208 
	C315.848206,325.623047 320.138031,328.948059 322.547424,333.868317 
	C322.203339,334.370758 322.035187,334.851776 321.844696,334.860779 
	C309.830902,335.429810 298.150146,339.326843 285.849396,337.626221 
	C277.207977,336.431549 272.269867,340.647797 269.936707,349.119934 
	C269.502716,350.695648 268.990234,352.392395 268.016052,353.646484 
	C266.109894,356.100281 263.487518,357.973480 260.263916,356.908447 
	C257.338776,355.942017 257.740814,352.940308 257.629303,350.489685 
	C257.095367,338.754364 262.625153,330.901489 273.570343,326.142242 
z"/>
<path fill="#000000" opacity="1.000000" stroke="none" 
	d="
M254.545441,129.578094 
	C260.120056,136.977341 264.024353,144.820282 266.484314,153.399048 
	C267.068634,155.436722 267.584076,157.264969 265.274719,158.599930 
	C259.890411,161.712372 255.413406,165.892548 251.215530,171.307755 
	C246.091080,166.409653 241.331802,161.615891 235.749939,157.805725 
	C234.346710,156.847900 234.725815,155.139740 235.145020,153.639328 
	C237.635742,144.724274 241.543961,136.553726 247.335495,129.256683 
	C249.926926,125.991631 252.017929,126.029572 254.545441,129.578094 
z"/>
<path fill="#000000" opacity="1.000000" stroke="none" 
	d="
M328.303711,275.999939 
	C328.295563,282.315308 328.413055,288.134369 328.245697,293.945221 
	C328.066620,300.163696 324.388336,305.116364 318.967194,306.824249 
	C315.947937,307.775452 313.679474,307.555267 313.689545,303.501648 
	C313.725037,289.212524 313.654022,274.922974 313.729858,260.634186 
	C313.748291,257.161621 315.246490,254.121201 317.877869,251.877136 
	C320.425507,249.704514 323.571594,247.387894 326.827332,248.781830 
	C329.610138,249.973282 328.187683,253.552246 328.253540,256.061188 
	C328.423584,262.536743 328.306396,269.019867 328.303711,275.999939 
z"/>
<path fill="#000000" opacity="1.000000" stroke="none" 
	d="
M162.072342,182.669830 
	C175.484985,182.295944 186.579498,185.876617 193.867294,197.440292 
	C194.803177,198.925308 196.204620,200.352921 195.557312,202.732086 
	C186.337708,202.408524 177.419724,201.075516 169.791916,194.480957 
	C168.684235,197.453156 171.757385,198.280777 170.807999,200.692276 
	C167.689438,201.150391 164.308289,201.674057 160.918182,202.131210 
	C159.641159,202.303421 158.533386,201.727554 157.985519,200.622681 
	C155.426407,195.461731 152.594467,190.390274 151.617416,184.593384 
	C154.944565,182.573151 158.306732,182.807663 162.072342,182.669830 
z"/>
<path fill="#000000" opacity="1.000000" stroke="none" 
	d="
M330.652405,200.251984 
	C331.047455,198.626846 331.614044,197.310242 332.180634,195.993637 
	C332.011749,195.576828 331.842896,195.160034 331.674011,194.743225 
	C324.252289,201.056747 315.456604,202.051239 306.473694,202.814590 
	C308.606201,186.809891 331.854858,178.517868 349.669373,184.545303 
	C348.947327,190.513611 346.060059,195.682114 343.158691,200.836044 
	C342.509430,201.989395 341.326355,202.265518 340.114197,202.083694 
	C337.011108,201.618225 333.919891,201.073517 330.652405,200.251984 
z"/>
<path fill="#000000" opacity="1.000000" stroke="none" 
	d="
M216.015564,362.964722 
	C216.707748,364.445465 217.892593,365.385803 217.253342,367.530579 
	C207.583984,367.682007 197.684830,369.407349 187.965103,366.739624 
	C182.803009,365.322815 179.477112,361.335541 177.417740,356.548584 
	C179.075439,354.379028 181.044388,354.985565 182.779938,354.959778 
	C189.426559,354.861115 196.112610,355.294647 202.711639,354.711395 
	C209.360291,354.123779 213.962494,355.849182 216.015564,362.964722 
z"/>
<path fill="#000000" opacity="1.000000" stroke="none" 
	d="
M286.878479,367.930786 
	C285.511932,367.703705 284.261444,367.704681 283.957275,366.627106 
	C283.366394,364.533905 289.725616,354.956146 291.837708,354.952271 
	C301.798889,354.933960 311.760468,355.083618 321.721405,355.213806 
	C322.161194,355.219604 322.595795,355.620880 323.010651,355.826904 
	C322.464508,361.582123 317.824341,366.019867 310.651337,367.289276 
	C302.911987,368.658936 295.074127,367.878479 286.878479,367.930786 
z"/>
<path fill="#000000" opacity="1.000000" stroke="none" 
	d="
M143.346924,230.816833 
	C152.312653,223.483917 162.747284,220.225861 173.507126,217.755447 
	C175.049591,217.401291 176.494415,217.599167 177.273697,219.330231 
	C179.031570,223.235107 181.220184,226.964066 182.361557,231.408112 
	C181.639832,231.744263 181.083405,232.227982 180.524811,232.230499 
	C168.704742,232.283737 156.884415,232.288101 145.064148,232.280807 
	C144.252777,232.280304 143.364441,232.234955 143.346924,230.816833 
z"/>
<path fill="#000000" opacity="1.000000" stroke="none" 
	d="
M354.435364,232.328491 
	C342.598633,232.329712 331.195770,232.329712 318.993683,232.329712 
	C320.237030,226.961258 322.432648,222.957443 324.630188,218.959808 
	C325.290405,217.758804 326.498291,217.528839 327.662231,217.770935 
	C338.748352,220.076660 349.357391,223.505524 358.334747,230.639374 
	C357.612122,232.877197 356.037506,232.077835 354.435364,232.328491 
z"/>
<path fill="#000000" opacity="1.000000" stroke="none" 
	d="
M189.655396,215.578674 
	C199.759918,215.501694 209.543900,214.527512 219.340256,219.355576 
	C215.417923,221.846100 211.584061,221.354385 208.213867,222.507416 
	C202.410645,224.492813 196.363129,225.848312 190.990479,228.944092 
	C188.217041,230.542191 186.351334,230.179352 185.226715,227.032745 
	C184.021042,223.659393 181.335693,220.884033 180.981049,216.948257 
	C183.575043,215.037643 186.499664,215.904266 189.655396,215.578674 
z"/>
<path fill="#000000" opacity="1.000000" stroke="none" 
	d="
M313.831879,215.611557 
	C316.510864,215.928864 319.033478,215.035797 320.854797,217.402359 
	C320.694366,217.981720 320.611359,218.648834 320.335449,219.223267 
	C314.980225,230.373047 314.975403,230.371353 303.535034,225.920822 
	C296.928589,223.350754 290.116669,221.463089 283.098511,219.793533 
	C292.667419,214.035614 303.173981,215.975510 313.831879,215.611557 
z"/>
<path fill="#000000" opacity="1.000000" stroke="none" 
	d="
M138.296234,192.640991 
	C139.660873,193.808807 141.470688,193.758362 142.260834,195.644867 
	C138.890259,197.586441 136.085938,200.243057 133.759964,204.215103 
	C131.105804,200.556458 128.402557,197.600967 124.136108,195.353012 
	C128.492126,193.260956 131.618332,190.758881 133.097778,186.631958 
	C135.827560,188.030579 135.723648,191.239090 138.296234,192.640991 
z"/>
<path fill="#000000" opacity="1.000000" stroke="none" 
	d="
M363.348572,198.678131 
	C361.967957,197.316727 359.953796,197.178223 359.443756,194.907379 
	C362.824371,193.309662 365.792480,191.076248 367.374878,186.457458 
	C370.398041,189.981842 372.480835,193.641266 377.440521,194.954987 
	C373.429535,197.684875 370.118225,200.004517 368.450928,203.823471 
	C365.431732,203.253403 365.627655,200.020950 363.348572,198.678131 
z"/>
<path fill="#000000" opacity="1.000000" stroke="none" 
	d="
M216.750580,224.238403 
	C225.015274,221.561615 230.836975,224.389297 235.368698,230.987686 
	C229.192947,233.980133 220.389023,232.684036 216.763611,228.316971 
	C215.796326,227.151779 213.927444,225.927338 216.750580,224.238403 
z"/>
<path fill="#000000" opacity="1.000000" stroke="none" 
	d="
M271.177002,226.047638 
	C276.381927,221.133316 281.477020,223.545929 286.800995,224.973663 
	C282.935120,232.409302 276.104797,234.459076 266.583710,231.359955 
	C266.838348,228.660080 269.403748,227.917160 271.177002,226.047638 
z"/>
<path fill="#000000" opacity="1.000000" stroke="none" 
	d="
M296.475220,227.460968 
	C298.244019,228.009735 299.680298,228.400085 300.921112,230.316116 
	C296.694855,233.787613 292.166901,231.837784 287.148712,232.083496 
	C289.255890,227.295670 291.553467,224.982925 296.475220,227.460968 
z"/>
<path fill="#000000" opacity="1.000000" stroke="none" 
	d="
M209.671021,232.333008 
	C206.511719,231.924942 203.244354,233.485626 201.091019,230.374496 
	C206.946396,224.913483 210.289474,225.144028 213.538803,231.057465 
	C212.831757,232.654694 211.324020,232.119019 209.671021,232.333008 
z"/>
</svg>