<?xml version="1.0" encoding="UTF-8"?>
<svg version="1.1" xmlns="http://www.w3.org/2000/svg" width="500" height="500">
<path d="M0 0 C165 0 330 0 500 0 C500 165 500 330 500 500 C335 500 170 500 0 500 C0 335 0 170 0 0 Z " fill="#FCFEFD" transform="translate(0,0)"/>
<path d="M0 0 C1.23556641 0.01740234 1.23556641 0.01740234 2.49609375 0.03515625 C3.32238281 0.04417969 4.14867188 0.05320312 5 0.0625 C5.63808594 0.07410156 6.27617188 0.08570313 6.93359375 0.09765625 C7.25972656 0.78472656 7.58585937 1.47179687 7.921875 2.1796875 C8.57736328 3.53126953 8.57736328 3.53126953 9.24609375 4.91015625 C9.67535156 5.80347656 10.10460937 6.69679688 10.546875 7.6171875 C11.86114518 9.96806514 12.79313208 11.48595471 14.93359375 13.09765625 C18.19302987 13.89455759 21.28356015 14.23695136 24.63208008 14.30297852 C25.98291435 14.33289635 25.98291435 14.33289635 27.36103821 14.36341858 C28.31955185 14.38013107 29.27806549 14.39684357 30.265625 14.4140625 C31.25737228 14.4348436 32.24911957 14.45562469 33.2709198 14.47703552 C36.42924274 14.54225677 39.58764663 14.60128827 42.74609375 14.66015625 C44.89128431 14.70336756 47.03646677 14.74698268 49.18164062 14.79101562 C54.43220686 14.89790997 59.68285307 14.99972662 64.93359375 15.09765625 C64.93359375 14.43765625 64.93359375 13.77765625 64.93359375 13.09765625 C63.28359375 12.76765625 61.63359375 12.43765625 59.93359375 12.09765625 C59.93359375 11.43765625 59.93359375 10.77765625 59.93359375 10.09765625 C61.50413581 8.68069118 63.14106039 7.33658809 64.80859375 6.03515625 C65.71351563 5.32230469 66.6184375 4.60945313 67.55078125 3.875 C73.16780215 -0.3147451 80.15455702 0.7964589 86.91601562 0.74755859 C88.58022135 0.73109729 90.24435931 0.70393889 91.90820312 0.66552734 C103.05081862 0.40986079 111.43656673 0.69387897 120.37109375 8.125 C125.67007125 14.603 127.14798348 19.48958445 127.19921875 27.828125 C126.93359375 30.09765625 126.93359375 30.09765625 124.93359375 33.09765625 C122.29359375 32.76765625 119.65359375 32.43765625 116.93359375 32.09765625 C117.20035579 34.08257267 117.20035579 34.08257267 117.93359375 36.09765625 C123.19799558 37.85245686 128.79870045 37.32474609 134.30859375 37.34765625 C136.15710938 37.37859375 136.15710938 37.37859375 138.04296875 37.41015625 C139.82574219 37.41789062 139.82574219 37.41789062 141.64453125 37.42578125 C142.73040527 37.43512695 143.8162793 37.44447266 144.93505859 37.45410156 C148.35283632 37.04781957 150.19217972 36.14872524 152.93359375 34.09765625 C154.73169001 31.10082914 155.86770979 28.31726944 156.87109375 24.97265625 C158.08447948 21.68937721 159.09647423 20.14668701 161.93359375 18.09765625 C163.9325488 18.03301342 165.93485417 18.02666277 167.93359375 18.09765625 C168.68547949 27.76078036 168.22830223 34.46588559 161.93359375 42.09765625 C159.55859375 44.47265625 159.55859375 44.47265625 156.93359375 46.09765625 C155.87914062 46.78085937 154.8246875 47.4640625 153.73828125 48.16796875 C147.97811127 51.01464816 141.80596297 50.69593704 135.52490234 50.61914062 C133.43729513 50.59769427 131.35312753 50.61900806 129.265625 50.64453125 C121.80571334 50.66034181 116.26538681 50.22839744 109.93359375 46.09765625 C109.17046875 45.6078125 108.40734375 45.11796875 107.62109375 44.61328125 C106.05859375 43.44140625 104.49609375 42.26953125 102.93359375 41.09765625 C102.60359375 42.08765625 102.27359375 43.07765625 101.93359375 44.09765625 C97.95027975 44.22232661 93.96773869 44.31248938 89.98291016 44.37231445 C87.96997122 44.40948452 85.95757538 44.47305595 83.9453125 44.53710938 C76.30151247 44.63313701 70.73818253 44.39484073 64.93359375 39.09765625 C62.1058349 36.12488413 60.79369441 34.0474389 59.93359375 30.09765625 C58.65307129 30.09878418 57.37254883 30.09991211 56.05322266 30.10107422 C51.26306807 30.0973793 46.4739072 30.05436976 41.68408203 30 C39.61839231 29.98192804 37.55258257 29.97425538 35.48681641 29.97753906 C13.23704335 29.99902605 13.23704335 29.99902605 5.93359375 23.09765625 C-2.76860809 14.38353086 -2.76860809 14.38353086 -3.296875 8.5546875 C-3.28269531 7.68199219 -3.26851563 6.80929687 -3.25390625 5.91015625 C-3.24746094 5.02972656 -3.24101563 4.14929688 -3.234375 3.2421875 C-3.01172979 0.39957776 -2.85312364 0.13483571 0 0 Z " fill="#EEF5F1" transform="translate(116.06640625,322.90234375)"/>
<path d="M0 0 C18.26968815 -0.707975 34.84334103 0.88508779 49.1171875 13.72265625 C57.1947402 21.38138243 57.1947402 21.38138243 59 27 C59.66 27 60.32 27 61 27 C61.2578125 26.26523438 61.515625 25.53046875 61.78125 24.7734375 C66.47505578 14.0920205 77.43107863 7.21836224 87.875 3.125 C93.06684524 1.23591896 97.4451499 -0.13143201 102.984375 -0.09765625 C103.91894531 -0.09443359 104.85351562 -0.09121094 105.81640625 -0.08789062 C106.78449219 -0.07951172 107.75257813 -0.07113281 108.75 -0.0625 C109.73355469 -0.05798828 110.71710938 -0.05347656 111.73046875 -0.04882812 C114.15370791 -0.03706483 116.57682273 -0.02062684 119 0 C119.60229492 1.8449707 119.60229492 1.8449707 120 4 C119.10073303 5.3628509 118.18902758 6.71871262 117.22509766 8.03662109 C113.90500134 13.35750882 112.12827407 19.75074646 109.97460938 25.61523438 C105.28348933 37.86222439 97.93715459 47.68467699 85.828125 53.25390625 C80.35927393 55.48585188 74.81668763 55.10165085 69 55 C69.23773024 44.53986946 76.82140152 35.09665101 84 28 C85.94988541 26.24338517 87.92915372 24.61627026 90 23 C83.30972957 23 77.29731553 27.36923981 72.625 31.875 C66.07106563 38.96960099 64.01850309 45.68736076 62 55 C62.99 55 63.98 55 65 55 C65 62.59 65 70.18 65 78 C61.37 78 57.74 78 54 78 C54 70.41 54 62.82 54 55 C55.32 55 56.64 55 58 55 C56.04793585 43.0924087 50.86098477 34.09123271 41 27 C36.96105531 24.48545419 33.87068447 23 29 23 C29.97839844 23.85271484 29.97839844 23.85271484 30.9765625 24.72265625 C39.4543003 32.21257504 46.57838462 39.36930771 51 50 C51.1640625 52.8359375 51.1640625 52.8359375 51 55 C39.42336669 55.71608041 31.04703836 53.53437522 22.0859375 46.00390625 C14.12014028 38.35137072 10.72562142 28.85614714 6.8671875 18.75 C5.14985143 14.28247539 3.14829532 10.05484426 0.8125 5.875 C0 4 0 4 0 0 Z " fill="#194E38" transform="translate(190,153)"/>
<path d="M0 0 C1.26005859 -0.01224609 2.52011719 -0.02449219 3.81835938 -0.03710938 C15.24892895 -0.05483119 25.57241151 0.94143234 36 5.8125 C37.15205933 6.33928345 37.15205933 6.33928345 38.32739258 6.87670898 C47.70525177 11.30473149 56.18529871 17.23695582 62.9375 25.1875 C62.9375 25.5175 62.9375 25.8475 62.9375 26.1875 C59.1047557 26.36327261 55.27306007 26.46884097 51.4375 26.5625 C50.35984375 26.61277344 49.2821875 26.66304687 48.171875 26.71484375 C41.36205768 26.83941358 37.55383057 26.15079126 32.54101562 21.38916016 C32.01185547 20.9926123 31.48269531 20.59606445 30.9375 20.1875 C29.4525 20.6825 29.4525 20.6825 27.9375 21.1875 C27.9375 21.8475 27.9375 22.5075 27.9375 23.1875 C29.2575 23.8475 30.5775 24.5075 31.9375 25.1875 C31.9375 25.8475 31.9375 26.5075 31.9375 27.1875 C18.0775 27.1875 4.2175 27.1875 -10.0625 27.1875 C-10.5575 25.7025 -10.5575 25.7025 -11.0625 24.1875 C-11.7225 25.5075 -12.3825 26.8275 -13.0625 28.1875 C-13.805 27.40375 -14.5475 26.62 -15.3125 25.8125 C-18.55839714 22.71414364 -20.3241657 21.2665152 -24.8125 21.0625 C-25.555 21.10375 -26.2975 21.145 -27.0625 21.1875 C-27.5575 23.6625 -27.5575 23.6625 -28.0625 26.1875 C-32.3525 26.1875 -36.6425 26.1875 -41.0625 26.1875 C-40.4025 24.5375 -39.7425 22.8875 -39.0625 21.1875 C-43.38621893 23.21383069 -43.38621893 23.21383069 -47.0625 26.1875 C-49.64314129 26.33247985 -52.11193884 26.37427545 -54.6875 26.3125 C-55.74710937 26.29896484 -55.74710937 26.29896484 -56.828125 26.28515625 C-58.57306098 26.26157603 -60.31782295 26.22570461 -62.0625 26.1875 C-61.10828192 25.03823734 -60.14897955 23.89319459 -59.1875 22.75 C-58.65382813 22.11191406 -58.12015625 21.47382813 -57.5703125 20.81640625 C-56.0625 19.1875 -56.0625 19.1875 -54.0625 18.1875 C-51.34489892 18.11568179 -48.65390612 18.09450494 -45.9375 18.125 C-45.18339844 18.12951172 -44.42929687 18.13402344 -43.65234375 18.13867188 C-41.78902873 18.15046501 -39.92575445 18.16840058 -38.0625 18.1875 C-39.3825 17.5275 -40.7025 16.8675 -42.0625 16.1875 C-42.0625 15.5275 -42.0625 14.8675 -42.0625 14.1875 C-43.0525 13.8575 -44.0425 13.5275 -45.0625 13.1875 C-37.01342205 9.48492414 -29.98210163 9.04754077 -21.1875 9.125 C-19.72570312 9.13176758 -19.72570312 9.13176758 -18.234375 9.13867188 C-15.84368566 9.15039094 -13.4531256 9.16679781 -11.0625 9.1875 C-11.0625 8.5275 -11.0625 7.8675 -11.0625 7.1875 C-17.3325 7.1875 -23.6025 7.1875 -30.0625 7.1875 C-30.0625 6.5275 -30.0625 5.8675 -30.0625 5.1875 C-28.33505984 4.53706281 -26.6054631 3.89235156 -24.875 3.25 C-23.91207031 2.89035156 -22.94914062 2.53070313 -21.95703125 2.16015625 C-14.69994083 -0.27846118 -7.58617375 0.00379879 0 0 Z " fill="#E1F0DF" transform="translate(327.0625,204.8125)"/>
<path d="M0 0 C2.50689272 2.51609514 4.17523983 5.43371605 5.9375 8.5 C6.43056641 9.31082031 6.92363281 10.12164062 7.43164062 10.95703125 C8.64450397 12.95884453 9.8320026 14.97179045 11 17 C12.25154366 15.29279724 13.50115872 13.58418058 14.75 11.875 C15.44609375 10.92367188 16.1421875 9.97234375 16.859375 8.9921875 C19.06249645 6.06010467 19.06249645 6.06010467 20.64941406 2.83642578 C23 0 23 0 26.671875 -0.5859375 C28.0324902 -0.54630793 29.39249197 -0.47508093 30.75 -0.375 C31.44738281 -0.34792969 32.14476562 -0.32085937 32.86328125 -0.29296875 C34.57685705 -0.22254783 36.28883302 -0.11492913 38 0 C38.07621035 6.58358323 38.12866715 13.16705222 38.16479492 19.75097656 C38.17985964 21.98962658 38.20031533 24.22824719 38.22631836 26.46679688 C38.26280283 29.68887602 38.27974983 32.91056411 38.29296875 36.1328125 C38.30845261 37.12991241 38.32393646 38.12701233 38.33988953 39.15432739 C38.34137894 45.33645496 37.72692961 49.79623024 33.5703125 54.6796875 C29.89719636 57.71745382 29.03262081 58 24 58 C24 46.78 24 35.56 24 24 C23.34 24 22.68 24 22 24 C21.75507813 24.55171875 21.51015625 25.1034375 21.2578125 25.671875 C19.74261886 28.47639491 17.88915874 30.78103123 15.875 33.25 C15.15054688 34.14203125 14.42609375 35.0340625 13.6796875 35.953125 C13.12539062 36.62859375 12.57109375 37.3040625 12 38 C7.35689749 34.43948616 3.76929509 30.43446481 0 26 C-0.01458252 26.60473145 -0.02916504 27.20946289 -0.04418945 27.83251953 C-0.11909188 30.59729265 -0.21561073 33.36091357 -0.3125 36.125 C-0.34633789 37.55199219 -0.34633789 37.55199219 -0.38085938 39.0078125 C-0.63466758 45.65297286 -1.44274454 50.37170967 -6.25 55.3125 C-9.52919947 57.32473604 -12.21465147 57.55126737 -16 58 C-16.07621035 51.41641677 -16.12866715 44.83294778 -16.16479492 38.24902344 C-16.17985964 36.01037342 -16.20031533 33.77175281 -16.22631836 31.53320312 C-16.26280283 28.31112398 -16.27974983 25.08943589 -16.29296875 21.8671875 C-16.30845261 20.87008759 -16.32393646 19.87298767 -16.33988953 18.84567261 C-16.34160431 11.72809572 -15.313528 7.41868837 -10.25 2.125 C-6.26947834 -0.47764878 -4.67296529 -0.84601076 0 0 Z " fill="#1B4F3B" transform="translate(225,248)"/>
<path d="M0 0 C0.93779297 -0.01611328 1.87558594 -0.03222656 2.84179688 -0.04882812 C9.14701953 -0.05327155 13.65634458 0.57927866 18.515625 4.9609375 C18.98484375 5.53070313 19.4540625 6.10046875 19.9375 6.6875 C20.41703125 7.25210938 20.8965625 7.81671875 21.390625 8.3984375 C25.19339041 14.01095271 25.55773871 19.7285728 24.6875 26.3125 C22.77117561 31.84769992 20.62476394 36.02099071 15.6875 39.3125 C17.17385116 43.52904356 19.29999159 46.93728605 21.8125 50.625 C22.53695312 51.69363281 23.26140625 52.76226562 24.0078125 53.86328125 C24.83925781 55.07564453 24.83925781 55.07564453 25.6875 56.3125 C25.1925 57.3025 25.1925 57.3025 24.6875 58.3125 C21.03461807 59.53012731 18.52995864 59.70325851 14.6875 59.3125 C9.14394162 55.96326681 6.65565739 51.25412189 3.59375 45.640625 C1.82225421 43.00886722 1.82225421 43.00886722 -1.53125 42.484375 C-2.90796875 42.39929688 -2.90796875 42.39929688 -4.3125 42.3125 C-4.39886719 42.89257812 -4.48523438 43.47265625 -4.57421875 44.0703125 C-5.62431017 49.90843543 -7.05088045 53.15234758 -11.3125 57.3125 C-14.02740725 59.06920469 -15.02684047 59.3125 -18.3125 59.3125 C-18.43945099 52.1593728 -18.52691503 45.00653694 -18.5871582 37.85253906 C-18.61227629 35.41981143 -18.64637704 32.98715908 -18.68969727 30.5546875 C-18.75046444 27.05449841 -18.77873783 23.5553085 -18.80078125 20.0546875 C-18.82658768 18.97009247 -18.8523941 17.88549744 -18.87898254 16.76803589 C-18.88210692 8.32447785 -18.88210692 8.32447785 -15.96948242 4.70361328 C-10.51485786 -0.20519798 -7.02294377 -0.02383891 0 0 Z " fill="#1A4E3B" transform="translate(178.3125,246.6875)"/>
<path d="M0 0 C1.6328125 1.40625 1.6328125 1.40625 3.125 3.5 C3.71152344 4.31082031 4.29804688 5.12164062 4.90234375 5.95703125 C5.59457031 6.96121094 6.28679687 7.96539062 7 9 C7.9178985 10.31645524 8.83587238 11.63285791 9.75390625 12.94921875 C13.89939905 18.92380845 17.97717887 24.94221549 22 31 C22.0093457 30.36497559 22.01869141 29.72995117 22.02832031 29.07568359 C22.08228733 26.174692 22.16588127 23.27526756 22.25 20.375 C22.26417969 19.37597656 22.27835937 18.37695312 22.29296875 17.34765625 C22.53508106 10.03586438 23.60871018 6.28189338 28.9375 1.125 C31.45323474 -0.24721895 33.17521427 -0.0837663 36 0 C36.07610425 7.0291449 36.12862273 14.05818342 36.16479492 21.08764648 C36.17987543 23.4786374 36.20034277 25.86960068 36.22631836 28.26049805 C36.26273306 31.69847435 36.27973399 35.13608469 36.29296875 38.57421875 C36.30845261 39.64210129 36.32393646 40.70998383 36.33988953 41.81022644 C36.3420132 51.18860568 36.3420132 51.18860568 33 55 C29.27033452 57.30128295 27.43338303 58 23 58 C22.74863281 56.59427734 22.74863281 56.59427734 22.4921875 55.16015625 C20.84410419 49.40345047 16.7913835 45.04805836 13.125 40.4375 C11.68857254 38.60406352 10.25363394 36.76945943 8.8203125 34.93359375 C8.15290039 34.0813623 7.48548828 33.22913086 6.79785156 32.35107422 C4.72557083 29.64112536 2.82924526 26.8779487 1 24 C0.9906543 24.72590332 0.98130859 25.45180664 0.97167969 26.19970703 C0.91778719 29.50881214 0.83417561 32.81653238 0.75 36.125 C0.73582031 37.26710938 0.72164063 38.40921875 0.70703125 39.5859375 C0.52195483 45.9525662 0.37382377 50.2049932 -4 55 C-7.43602812 57.57702109 -8.60072868 58 -13 58 C-13.07611202 51.11327194 -13.12862596 44.22665251 -13.16479492 37.33959961 C-13.17987428 34.99711046 -13.20034078 32.6546495 -13.22631836 30.31225586 C-13.26273821 26.94377683 -13.27973513 23.57567136 -13.29296875 20.20703125 C-13.30845261 19.16102249 -13.32393646 18.11501373 -13.33988953 17.03730774 C-13.34198106 7.98565152 -13.34198106 7.98565152 -10 4 C-6.64048438 0.72889269 -4.70224133 -0.60229326 0 0 Z " fill="#1B4F3C" transform="translate(346,248)"/>
<path d="M0 0 C18.18439892 -0.70466993 35.03629664 0.78678763 49.1171875 13.79296875 C52.74607428 17.29853822 56.19359368 20.79039052 59 25 C58.69629447 30.26422924 57.20568183 34.30093871 55 39 C51.70504256 37.6051584 50.08331822 36.08182149 47.9375 33.25 C43.83720366 28.38644504 38.87670914 25.37588241 33 23 C31.68 23 30.36 23 29 23 C29.97839844 23.85271484 29.97839844 23.85271484 30.9765625 24.72265625 C39.4543003 32.21257504 46.57838462 39.36930771 51 50 C51.1640625 52.8359375 51.1640625 52.8359375 51 55 C39.42336669 55.71608041 31.04703836 53.53437522 22.0859375 46.00390625 C14.12014028 38.35137072 10.72562142 28.85614714 6.8671875 18.75 C5.14985143 14.28247539 3.14829532 10.05484426 0.8125 5.875 C0 4 0 4 0 0 Z " fill="#194D38" transform="translate(190,153)"/>
<path d="M0 0 C0.73476562 0.09152344 1.46953125 0.18304688 2.2265625 0.27734375 C5.24957401 1.38211705 6.41522488 2.4695051 8.375 5.0625 C9.6232702 8.15978961 10.46717722 11.33519612 11.3125 14.5625 C11.56555908 15.48651611 11.81861816 16.41053223 12.0793457 17.36254883 C14.05304062 24.63896585 15.88883793 31.95190244 17.68017578 39.27514648 C18.92075763 44.3360057 20.27280519 49.33037996 21.89453125 54.28515625 C22.375 56.0625 22.375 56.0625 22.375 59.0625 C14.60714286 59.73214286 14.60714286 59.73214286 11 56.875 C7.66587165 53.30271963 6.375 50.93716801 6.375 46.0625 C1.425 46.0625 -3.525 46.0625 -8.625 46.0625 C-8.955 48.3725 -9.285 50.6825 -9.625 53.0625 C-13.04865198 56.99969977 -15.32978848 58.27969173 -20.5 58.875 C-21.87468045 58.94417298 -23.24966916 59.00776134 -24.625 59.0625 C-22.1808457 47.79290183 -19.34845383 36.61945503 -16.49023438 25.44873047 C-15.9573549 23.36322305 -15.42901138 21.27654292 -14.90820312 19.18798828 C-14.31536966 16.8270155 -13.69519596 14.47554682 -13.0625 12.125 C-12.73121094 10.85785156 -12.39992188 9.59070313 -12.05859375 8.28515625 C-9.78666088 3.17795021 -6.06886064 -0.95429081 0 0 Z " fill="#1C503D" transform="translate(133.625,246.9375)"/>
<path d="M0 0 C0.99 0.66 1.98 1.32 3 2 C1.40193652 8.08882416 -1.8611283 13.0664755 -5.125 18.375 C-5.68832031 19.30183594 -6.25164062 20.22867187 -6.83203125 21.18359375 C-8.21606043 23.45903155 -9.60548922 25.7309763 -11 28 C-7.86506245 33.48095042 -4.70141591 38.92850951 -1.30859375 44.25390625 C-0.85403809 44.96869141 -0.39948242 45.68347656 0.06884766 46.41992188 C0.97285626 47.83511622 1.88259341 49.24666942 2.79833984 50.65429688 C6 55.67076866 6 55.67076866 6 59 C3.74224185 60.12887908 2.26243075 60.26390612 -0.25 60.375 C-0.99765625 60.42398438 -1.7453125 60.47296875 -2.515625 60.5234375 C-7.80665435 59.40866088 -10.90961826 55.37776011 -13.7734375 51.08203125 C-14.65140977 49.66548197 -15.51850961 48.2421403 -16.375 46.8125 C-16.82488281 46.08869141 -17.27476562 45.36488281 -17.73828125 44.61914062 C-21 39.29034479 -21 39.29034479 -21 37 C-21.99 37 -22.98 37 -24 37 C-23.95359375 37.94101562 -23.9071875 38.88203125 -23.859375 39.8515625 C-23.52768147 51.29498917 -23.52768147 51.29498917 -25.75 54.75 C-28.73370297 57.73370297 -30.37595093 58.97586851 -34.62890625 59.0390625 C-35.41136719 59.02617187 -36.19382812 59.01328125 -37 59 C-37.12695099 51.8468728 -37.21441503 44.69403694 -37.2746582 37.54003906 C-37.29977629 35.10731143 -37.33387704 32.67465908 -37.37719727 30.2421875 C-37.43796444 26.74199841 -37.46623783 23.2428085 -37.48828125 19.7421875 C-37.51408768 18.65759247 -37.5398941 17.57299744 -37.56648254 16.45553589 C-37.5696068 8.01229573 -37.5696068 8.01229573 -34.59448242 4.32861328 C-30.40413597 0.56767187 -30.26820819 1 -24 1 C-23.67 8.59 -23.34 16.18 -23 24 C-22.13375 22.39125 -21.2675 20.7825 -20.375 19.125 C-19.2530182 17.08167315 -18.12793509 15.04004662 -17 13 C-16.48566406 12.05898438 -15.97132813 11.11796875 -15.44140625 10.1484375 C-14.69697266 8.83746094 -14.69697266 8.83746094 -13.9375 7.5 C-13.49277344 6.7059375 -13.04804688 5.911875 -12.58984375 5.09375 C-9.1991211 0.62832655 -5.4710564 -0.59468004 0 0 Z " fill="#1A4E3A" transform="translate(426,246)"/>
<path d="M0 0 C0.65880661 0.00424484 1.31761322 0.00848969 1.99638367 0.01286316 C4.0852576 0.02955679 6.17314014 0.06718817 8.26171875 0.10546875 C9.68423078 0.12052778 11.10675805 0.13421406 12.52929688 0.14648438 C16.00292226 0.17942872 19.47597362 0.23114467 22.94921875 0.29296875 C22.2826372 5.16776717 21.43083276 7.71188006 17.94921875 11.29296875 C14.17681415 13.9291069 10.11154847 13.51931201 5.69921875 13.41796875 C4.95414063 13.40894531 4.2090625 13.39992188 3.44140625 13.390625 C1.61053816 13.36715233 -0.22016363 13.331284 -2.05078125 13.29296875 C-2.05078125 16.92296875 -2.05078125 20.55296875 -2.05078125 24.29296875 C4.21921875 24.29296875 10.48921875 24.29296875 16.94921875 24.29296875 C15.7953726 32.36989183 15.7953726 32.36989183 10.94921875 36.29296875 C7.93431318 37.29793727 5.90740183 37.39632178 2.76171875 37.35546875 C1.86066406 37.34644531 0.95960937 37.33742188 0.03125 37.328125 C-0.65582031 37.31652344 -1.34289062 37.30492187 -2.05078125 37.29296875 C-2.004375 38.08960938 -1.95796875 38.88625 -1.91015625 39.70703125 C-1.61555893 48.35556683 -1.61555893 48.35556683 -3.67578125 52.79296875 C-6.29011726 55.54490139 -8.71102275 57.48393289 -12.05078125 59.29296875 C-13.37078125 59.29296875 -14.69078125 59.29296875 -16.05078125 59.29296875 C-16.15235503 52.28218994 -16.22231986 45.2716015 -16.27050781 38.26025391 C-16.29060018 35.87606718 -16.31787906 33.4919296 -16.35253906 31.10791016 C-16.40115984 27.67728537 -16.42377437 24.2473132 -16.44140625 20.81640625 C-16.46205139 19.753685 -16.48269653 18.69096375 -16.50396729 17.59603882 C-16.50575417 11.67817158 -16.2643259 7.83651145 -12.05078125 3.29296875 C-8.0941166 0.11182543 -4.9987035 -0.06381324 0 0 Z " fill="#1D513D" transform="translate(85.05078125,247.70703125)"/>
<path d="M0 0 C0 14.52 0 29.04 0 44 C7.92 44 15.84 44 24 44 C22.47391054 53.15653673 22.47391054 53.15653673 17.81762695 56.6262207 C14.37342628 58.30549608 11.98913981 58.34346881 8.16796875 58.29296875 C6.87568359 58.28330078 5.58339844 58.27363281 4.25195312 58.26367188 C2.8971293 58.23860985 1.54231159 58.21321506 0.1875 58.1875 C-1.18683445 58.17244013 -2.56118468 58.15875401 -3.93554688 58.14648438 C-7.29076632 58.11116628 -10.64518166 58.06183851 -14 58 C-14.10158627 51.13163921 -14.17154375 44.26347283 -14.21972656 37.39453125 C-14.23981709 35.05884562 -14.26709461 32.72321013 -14.30175781 30.38769531 C-14.35038691 27.02656669 -14.37299492 23.66610425 -14.390625 20.3046875 C-14.41127014 19.26384003 -14.43191528 18.22299255 -14.45318604 17.15060425 C-14.45505117 11.09717003 -14.05855008 7.59776544 -10 3 C-6.19154796 0.07042151 -5.05617203 0 0 0 Z " fill="#1D513D" transform="translate(283,248)"/>
<path d="M0 0 C2.91772459 0.09725749 5.2332199 0.19434756 8 1 C10.82997485 4.12786694 11.88344355 6.54931507 12.9375 10.625 C14.19256324 14.61167145 15.51880713 15.79241428 19 18 C24.26440183 19.75480061 29.8651067 19.22708984 35.375 19.25 C37.22351563 19.2809375 37.22351563 19.2809375 39.109375 19.3125 C40.89214844 19.32023437 40.89214844 19.32023437 42.7109375 19.328125 C44.33974854 19.34214355 44.33974854 19.34214355 46.00146484 19.35644531 C49.41924257 18.95016332 51.25858597 18.05106899 54 16 C55.79809626 13.00317289 56.93411604 10.21961319 57.9375 6.875 C59.15088573 3.59172096 60.16288048 2.04903076 63 0 C64.99895505 -0.06464283 67.00126042 -0.07099348 69 0 C69.75188574 9.66312411 69.29470848 16.36822934 63 24 C60.625 26.375 60.625 26.375 58 28 C56.94554687 28.68320312 55.89109375 29.36640625 54.8046875 30.0703125 C49.04451752 32.91699191 42.87236922 32.59828079 36.59130859 32.52148438 C34.50370138 32.50003802 32.41953378 32.52135181 30.33203125 32.546875 C20.46212095 32.56661173 13.29946684 31.10218395 6 24 C1.50435409 17.83599825 -0.14581975 13.41541743 -0.0625 5.75 C-0.04896484 4.13351562 -0.04896484 4.13351562 -0.03515625 2.484375 C-0.02355469 1.66453125 -0.01195312 0.8446875 0 0 Z " fill="#3DA036" transform="translate(215,341)"/>
<path d="M0 0 C1.45792884 -0.05399736 2.91642712 -0.09279177 4.375 -0.125 C5.18710937 -0.14820313 5.99921875 -0.17140625 6.8359375 -0.1953125 C9 0 9 0 11 2 C10.74319697 9.44728782 8.48001933 15.05078783 3.6875 20.75 C-1.91594111 25.44125302 -7.23040892 28.11142426 -14.6171875 28.16113281 C-15.76848145 28.17074036 -16.91977539 28.1803479 -18.10595703 28.19024658 C-19.34974121 28.19449646 -20.59352539 28.19874634 -21.875 28.203125 C-23.78901611 28.21167511 -23.78901611 28.21167511 -25.74169922 28.22039795 C-28.44176808 28.22985001 -31.14172571 28.23674626 -33.84179688 28.24023438 C-37.30212267 28.24572825 -40.7620568 28.26978059 -44.22225952 28.29820633 C-47.52314346 28.32129654 -50.82404657 28.32327924 -54.125 28.328125 C-55.36878418 28.3404718 -56.61256836 28.3528186 -57.89404297 28.36553955 C-59.04533691 28.36253845 -60.19663086 28.35953735 -61.3828125 28.35644531 C-62.39746582 28.36009094 -63.41211914 28.36373657 -64.45751953 28.36749268 C-67 28 -67 28 -68.82763672 26.66522217 C-70.65281716 24.07273997 -70.38437024 22.07496193 -70 19 C-68.80744934 17.33654785 -68.80744934 17.33654785 -67 16 C-64.59159851 15.62145996 -64.59159851 15.62145996 -61.70581055 15.61523438 C-60.62426193 15.60512329 -59.54271332 15.59501221 -58.4283905 15.58459473 C-56.67526299 15.58912659 -56.67526299 15.58912659 -54.88671875 15.59375 C-53.68441116 15.58291382 -52.48210358 15.57207764 -51.24336243 15.56091309 C-47.39135382 15.52656657 -43.53964179 15.51104385 -39.6875 15.5 C-34.62862053 15.48543661 -29.57040418 15.45173444 -24.51171875 15.40625 C-23.34903976 15.40927124 -22.18636078 15.41229248 -20.9884491 15.41540527 C-13.07414229 15.35865024 -13.07414229 15.35865024 -6 12 C-4.54486611 10.16221789 -4.54486611 10.16221789 -3.75 8.0625 C-3.45609375 7.39347656 -3.1621875 6.72445313 -2.859375 6.03515625 C-2.57578125 5.36355469 -2.2921875 4.69195312 -2 4 C-1.34169115 2.6625204 -0.67734006 1.32794302 0 0 Z " fill="#194F3A" transform="translate(376,323)"/>
<path d="M0 0 C1.23556641 0.01740234 1.23556641 0.01740234 2.49609375 0.03515625 C3.32238281 0.04417969 4.14867188 0.05320312 5 0.0625 C5.63808594 0.07410156 6.27617188 0.08570313 6.93359375 0.09765625 C7.248125 0.773125 7.56265625 1.44859375 7.88671875 2.14453125 C10.95559195 8.82237182 10.95559195 8.82237182 15.93359375 14.09765625 C18.97773816 15.11237105 21.08782598 15.23970184 24.27539062 15.27124023 C25.91223816 15.29147499 25.91223816 15.29147499 27.58215332 15.31211853 C29.34939758 15.32777611 29.34939758 15.32777611 31.15234375 15.34375 C33.63542034 15.37667725 36.11849317 15.40988908 38.6015625 15.44335938 C42.52552799 15.49086441 46.44947703 15.53531471 50.37353516 15.57446289 C54.15413105 15.61406642 57.93441709 15.66562848 61.71484375 15.71875 C63.48208801 15.73137123 63.48208801 15.73137123 65.28503418 15.74424744 C66.37626587 15.76088943 67.46749756 15.77753143 68.59179688 15.79467773 C70.03383484 15.81013893 70.03383484 15.81013893 71.50500488 15.82591248 C73.93359375 16.09765625 73.93359375 16.09765625 76.93359375 18.09765625 C77.59274808 24.13990424 77.59274808 24.13990424 75.76675415 26.79307556 C73.20401372 28.61686669 71.35949785 28.49875093 68.22802734 28.53344727 C67.05605804 28.55258682 65.88408875 28.57172638 64.67660522 28.59144592 C62.77354111 28.59645363 62.77354111 28.59645363 60.83203125 28.6015625 C58.87277206 28.6165403 58.87277206 28.6165403 56.87393188 28.63182068 C54.10484394 28.64978961 51.33603666 28.65534163 48.56689453 28.65356445 C45.03931714 28.65326098 41.51357061 28.69406468 37.9864254 28.74588108 C34.60160465 28.78754226 31.21710446 28.78551551 27.83203125 28.7890625 C26.57546722 28.81061905 25.3189032 28.8321756 24.02426147 28.85438538 C16.03010218 28.79242694 10.92577289 27.51686177 4.93359375 22.09765625 C-2.78137876 14.24262059 -2.78137876 14.24262059 -3.296875 8.5546875 C-3.28269531 7.68199219 -3.26851563 6.80929687 -3.25390625 5.91015625 C-3.24746094 5.02972656 -3.24101563 4.14929688 -3.234375 3.2421875 C-3.01172979 0.39957776 -2.85312364 0.13483571 0 0 Z " fill="#1A4E3A" transform="translate(116.06640625,322.90234375)"/>
<path d="M0 0 C1.26005859 -0.01224609 2.52011719 -0.02449219 3.81835938 -0.03710938 C15.24892895 -0.05483119 25.57241151 0.94143234 36 5.8125 C37.15205933 6.33928345 37.15205933 6.33928345 38.32739258 6.87670898 C47.70525177 11.30473149 56.18529871 17.23695582 62.9375 25.1875 C62.9375 25.5175 62.9375 25.8475 62.9375 26.1875 C39.39387892 27.8581718 39.39387892 27.8581718 32.375 22.0625 C31.06208984 20.83273438 31.06208984 20.83273438 29.72265625 19.578125 C24.60320901 15.18387295 18.24923743 13.34696132 11.9375 11.1875 C10.98230469 10.85878906 10.02710938 10.53007812 9.04296875 10.19140625 C-0.02627783 7.27977409 -9.10491634 6.97004342 -18.5625 6.625 C-19.67109375 6.58181641 -20.7796875 6.53863281 -21.921875 6.49414062 C-24.63531506 6.38887786 -27.34883417 6.28674154 -30.0625 6.1875 C-27.89356765 4.01856765 -26.62323312 3.54733198 -23.75 2.625 C-22.99074219 2.37621094 -22.23148437 2.12742188 -21.44921875 1.87109375 C-14.31377835 -0.17260849 -7.37745518 0.00369427 0 0 Z " fill="#3DA133" transform="translate(327.0625,204.8125)"/>
<path d="M0 0 C1.79256226 -0.00966797 1.79256226 -0.00966797 3.62133789 -0.01953125 C13.14199539 0.11663713 23.77645685 0.73911835 32.25 5.5 C32.25 5.83 32.25 6.16 32.25 6.5 C31.27897339 6.50616333 31.27897339 6.50616333 30.28833008 6.51245117 C-0.92190008 6.85619541 -0.92190008 6.85619541 -28.10546875 20.66015625 C-36.33641468 28.07978478 -44.57420976 27.22887387 -55.10546875 26.78125 C-56.65396974 26.69301155 -58.20230839 26.6014496 -59.75 26.5 C-58.81429374 25.39301256 -57.87635148 24.28791495 -56.9375 23.18359375 C-56.41542969 22.56798584 -55.89335938 21.95237793 -55.35546875 21.31811523 C-41.02084682 5.08485345 -20.77319242 0.10603301 0 0 Z " fill="#3CA233" transform="translate(169.75,204.5)"/>
<path d="M0 0 C0.76826614 -0.00761353 1.53653229 -0.01522705 2.32807922 -0.02307129 C3.95102707 -0.03384796 5.57404412 -0.03673528 7.19702148 -0.03222656 C9.65144178 -0.03125959 12.10267553 -0.0727897 14.55664062 -0.1171875 C24.79674425 -0.19638069 32.28364793 0.72403094 40.42578125 7.49609375 C45.72475875 13.97409375 47.20267098 18.8606782 47.25390625 27.19921875 C46.98828125 29.46875 46.98828125 29.46875 44.98828125 32.46875 C41.29540012 32.21696265 39.4700098 31.92371586 36.73828125 29.34375 C34.98828125 26.46875 34.98828125 26.46875 34.05078125 22.96875 C32.80890095 18.8778502 31.24854675 17.17238481 27.98828125 14.46875 C24.69778376 13.3719175 22.10516871 13.27919201 18.640625 13.1875 C17.39603516 13.15011719 16.15144531 13.11273438 14.86914062 13.07421875 C12.23633092 13.00380185 9.6035184 12.93348966 6.97070312 12.86328125 C5.72740234 12.82589844 4.48410156 12.78851563 3.203125 12.75 C1.48790649 12.70456055 1.48790649 12.70456055 -0.26196289 12.65820312 C-3.01171875 12.46875 -3.01171875 12.46875 -5.01171875 11.46875 C-7.38295121 11.23845044 -9.75913818 11.05755058 -12.13671875 10.90625 C-13.41804687 10.82246094 -14.699375 10.73867188 -16.01953125 10.65234375 C-17.00695312 10.59175781 -17.994375 10.53117187 -19.01171875 10.46875 C-18.12534497 9.35697533 -17.22707225 8.25468386 -16.32421875 7.15625 C-15.82535156 6.54136719 -15.32648438 5.92648437 -14.8125 5.29296875 C-10.33880727 0.76105009 -6.18856477 0.00170685 0 0 Z " fill="#3D9F37" transform="translate(196.01171875,323.53125)"/>
<path d="M0 0 C0.77442444 -0.0066568 1.54884888 -0.0133136 2.34674072 -0.02017212 C3.98406609 -0.03028212 5.62143252 -0.03498965 7.25878906 -0.03466797 C9.74354482 -0.03902379 12.22649784 -0.07530946 14.7109375 -0.11328125 C16.30728565 -0.11915357 17.90364216 -0.12312018 19.5 -0.125 C20.60042633 -0.14655655 20.60042633 -0.14655655 21.7230835 -0.16854858 C27.21225877 -0.12079012 31.42430287 1.29834312 36.015625 4.3359375 C40.015625 8.6359375 40.015625 8.6359375 40.015625 10.3359375 C39.02820313 10.39652344 38.04078125 10.45710938 37.0234375 10.51953125 C35.74210937 10.60332031 34.46078125 10.68710937 33.140625 10.7734375 C31.86445313 10.85464844 30.58828125 10.93585938 29.2734375 11.01953125 C26.13262348 11.12799777 26.13262348 11.12799777 24.015625 12.3359375 C21.90787071 12.43097431 19.79737765 12.4678175 17.6875 12.4765625 C16.41261719 12.49589844 15.13773437 12.51523437 13.82421875 12.53515625 C11.7986993 12.56404328 9.7742735 12.58593541 7.74853516 12.58642578 C-0.99283829 12.26169996 -0.99283829 12.26169996 -8.77734375 15.53125 C-11.02215807 18.38395209 -12.09300789 20.48100021 -13.046875 23.9609375 C-14.02904451 27.52802079 -14.45525065 28.94263562 -17.46484375 31.1796875 C-19.984375 32.3359375 -19.984375 32.3359375 -22.234375 32.2109375 C-23.984375 31.3359375 -23.984375 31.3359375 -24.984375 28.3359375 C-25.61255581 22.21117461 -24.97593193 16.77079789 -21.984375 11.3359375 C-15.50501873 3.83352498 -9.88988603 0.02967637 0 0 Z " fill="#3BA035" transform="translate(281.984375,323.6640625)"/>
<path d="M0 0 C6.97980801 2.67865439 10.41210756 11.41157864 13.3125 17.875 C13.88023669 19.24784606 14.44346464 20.62257499 15 22 C15.6496875 23.3921875 15.6496875 23.3921875 16.3125 24.8125 C17.14702041 27.46779222 17.04327958 28.43044103 16 31 C13.85546875 32.74609375 13.85546875 32.74609375 11.1875 34.4375 C7.41756424 36.94000385 4.5458593 39.18121105 2 43 C-1.38731138 41.51420205 -3.78511129 39.55889596 -6.5 37.0625 C-9.24319741 34.54946812 -11.98692252 32.18448118 -15 30 C-14.48915287 24.3140493 -12.92246479 20.05138943 -10.3125 15 C-9.95671875 14.29810547 -9.6009375 13.59621094 -9.234375 12.87304688 C-6.68547506 7.98080343 -3.92018868 3.92018868 0 0 Z " fill="#1A4F39" transform="translate(249,126)"/>
<path d="M0 0 C0.10157378 7.01077881 0.17153861 14.02136725 0.21972656 21.03271484 C0.23981893 23.41690157 0.26709781 25.80103915 0.30175781 28.18505859 C0.35037859 31.61568338 0.37299312 35.04565555 0.390625 38.4765625 C0.41127014 39.53928375 0.43191528 40.602005 0.45318604 41.69692993 C0.45502368 47.78291239 0.142165 51.40995756 -4 56 C-7.75220181 58.34512613 -9.52961855 59 -14 59 C-14.07611202 52.11327194 -14.12862596 45.22665251 -14.16479492 38.33959961 C-14.17987428 35.99711046 -14.20034078 33.6546495 -14.22631836 31.31225586 C-14.26273821 27.94377683 -14.27973513 24.57567136 -14.29296875 21.20703125 C-14.30845261 20.16102249 -14.32393646 19.11501373 -14.33988953 18.03730774 C-14.34198729 8.95867835 -14.34198729 8.95867835 -11 5 C-7.40389146 1.76350231 -4.95057075 0 0 0 Z " fill="#1F523F" transform="translate(327,247)"/>
<path d="M0 0 C1.35834961 0.0009668 1.35834961 0.0009668 2.74414062 0.00195312 C9.40582483 0.04666241 9.40582483 0.04666241 11.6875 1.1875 C9.74804986 7.40255614 7.4101616 13.27275238 4.6875 19.1875 C0.3975 18.8575 -3.8925 18.5275 -8.3125 18.1875 C-6.3125 14.1875 -6.3125 14.1875 -4.3125 12.1875 C-8.17974404 12.72461723 -10.27811775 13.78092098 -13.3125 16.1875 C-13.9725 16.1875 -14.6325 16.1875 -15.3125 16.1875 C-15.3125 16.8475 -15.3125 17.5075 -15.3125 18.1875 C-20.9225 18.8475 -26.5325 19.5075 -32.3125 20.1875 C-30.8202239 12.72611952 -26.10754092 8.41212441 -20.25 3.75 C-13.5286282 0.17480223 -7.47049837 -0.1032287 0 0 Z " fill="#3CA235" transform="translate(337.3125,181.8125)"/>
<path d="M0 0 C8.37153083 2.96319037 13.67934698 6.98862843 18.1875 14.640625 C19 16.375 19 16.375 19 18.375 C16.26758233 18.14604328 13.54116225 17.89273464 10.8125 17.625 C10.04357422 17.563125 9.27464844 17.50125 8.48242188 17.4375 C3.4364738 16.91774569 0.81882905 15.92105555 -3 12.375 C-4.95154947 11.31881578 -4.95154947 11.31881578 -6.8125 10.625 C-8.3903125 10.00625 -8.3903125 10.00625 -10 9.375 C-8.7625 10.550625 -8.7625 10.550625 -7.5 11.75 C-5 14.375 -5 14.375 -5 16.375 C-11.435 16.87 -11.435 16.87 -18 17.375 C-24.29464286 5.32142857 -24.29464286 5.32142857 -25 -0.625 C-18.31412642 -3.96793679 -6.84951181 -1.93520791 0 0 Z " fill="#3D9F33" transform="translate(176,183.625)"/>
<path d="M0 0 C4.22902991 -0.08860651 8.45781493 -0.14092245 12.6875 -0.1875 C13.86634766 -0.21263672 15.04519531 -0.23777344 16.25976562 -0.26367188 C24.57191419 -0.3319909 31.99352995 0.77769721 40 3 C40 3.99 40 4.98 40 6 C40.99 6.185625 41.98 6.37125 43 6.5625 C47.97387463 7.9458271 51.4765119 11.34838506 55 15 C55 15.33 55 15.66 55 16 C40.15262596 16.85988653 40.15262596 16.85988653 35.5625 13.8125 C33 11 33 11 32.5625 8.1875 C32.706875 7.465625 32.85125 6.74375 33 6 C31.68 6 30.36 6 29 6 C29 6.99 29 7.98 29 9 C28.34 9 27.68 9 27 9 C27 9.66 27 10.32 27 11 C27.61875 11.0825 28.2375 11.165 28.875 11.25 C31 12 31 12 32.1328125 14.046875 C32.41898438 14.69140625 32.70515625 15.3359375 33 16 C31.04174127 16.02694851 29.08337774 16.04637218 27.125 16.0625 C25.48917969 16.07990234 25.48917969 16.07990234 23.8203125 16.09765625 C21 16 21 16 19 15 C18.375 12.9375 18.375 12.9375 18 11 C16.7625 11.309375 15.525 11.61875 14.25 11.9375 C12.125 12.46875 12.125 12.46875 10 13 C8.87851563 13.28037109 8.87851563 13.28037109 7.734375 13.56640625 C7.16203125 13.70949219 6.5896875 13.85257813 6 14 C4.9923048 12.2335343 3.99408286 10.46166177 3 8.6875 C2.443125 7.70136719 1.88625 6.71523437 1.3125 5.69921875 C0 3 0 3 0 0 Z " fill="#39A12F" transform="translate(180,215)"/>
<path d="M0 0 C1.01725914 0.00636726 1.01725914 0.00636726 2.05506897 0.01286316 C4.19469027 0.02948934 6.33332572 0.06710701 8.47265625 0.10546875 C9.93423107 0.12053653 11.39582083 0.13422125 12.85742188 0.14648438 C16.41698022 0.17933898 19.97597181 0.23100634 23.53515625 0.29296875 C22.35678127 3.89715595 21.15329874 7.29789326 19.41015625 10.66796875 C19.05695313 11.35632813 18.70375 12.0446875 18.33984375 12.75390625 C18.07429688 13.26179687 17.80875 13.7696875 17.53515625 14.29296875 C14.97162248 13.86571312 12.84170729 13.45582399 10.53515625 12.23046875 C8.08525838 11.08207912 6.2087729 11.14443449 3.53515625 11.29296875 C3.20515625 12.94296875 2.87515625 14.59296875 2.53515625 16.29296875 C-1.75484375 16.29296875 -6.04484375 16.29296875 -10.46484375 16.29296875 C-9.80484375 14.64296875 -9.14484375 12.99296875 -8.46484375 11.29296875 C-12.78856268 13.31929944 -12.78856268 13.31929944 -16.46484375 16.29296875 C-19.04548504 16.4379486 -21.51428259 16.4797442 -24.08984375 16.41796875 C-25.14945312 16.40443359 -25.14945312 16.40443359 -26.23046875 16.390625 C-27.97540473 16.36704478 -29.7201667 16.33117336 -31.46484375 16.29296875 C-30.51062567 15.14370609 -29.5513233 13.99866334 -28.58984375 12.85546875 C-28.05617188 12.21738281 -27.5225 11.57929688 -26.97265625 10.921875 C-25.46484375 9.29296875 -25.46484375 9.29296875 -23.46484375 8.29296875 C-20.74724267 8.22115054 -18.05624987 8.19997369 -15.33984375 8.23046875 C-14.58574219 8.23498047 -13.83164062 8.23949219 -13.0546875 8.24414062 C-11.19137248 8.25593376 -9.3280982 8.27386933 -7.46484375 8.29296875 C-8.78484375 7.63296875 -10.10484375 6.97296875 -11.46484375 6.29296875 C-11.46484375 5.63296875 -11.46484375 4.97296875 -11.46484375 4.29296875 C-12.45484375 3.96296875 -13.44484375 3.63296875 -14.46484375 3.29296875 C-9.38372879 0.81109457 -5.75543289 -0.07164439 0 0 Z " fill="#41A53B" transform="translate(296.46484375,214.70703125)"/>
<path d="M0 0 C0.66 0 1.32 0 2 0 C7.87803609 12.21559292 7.87803609 12.21559292 5.875 18.5 C5.2529216 20.001214 4.6279965 21.50125206 4 23 C3.63178265 24.65930855 3.28898372 26.32507394 3 28 C3.99 28 4.98 28 6 28 C6 35.59 6 43.18 6 51 C2.37 51 -1.26 51 -5 51 C-5 43.41 -5 35.82 -5 28 C-3.68 28 -2.36 28 -1 28 C-2.09698167 22.30860098 -3.54053077 17.25432063 -6 12 C-5.34 12 -4.68 12 -4 12 C-3.896875 11.319375 -3.79375 10.63875 -3.6875 9.9375 C-2.85274981 6.37084011 -1.50527246 3.33777806 0 0 Z " fill="#41A13B" transform="translate(249,180)"/>
<path d="M0 0 C11.22 0 22.44 0 34 0 C35.98 3.96 37.96 7.92 40 12 C35.83627802 12.09218573 31.67613916 12.17169966 27.51220703 12.21972656 C26.09802205 12.23975843 24.68391903 12.26699248 23.27001953 12.30175781 C21.22928581 12.35065489 19.1896531 12.37305123 17.1484375 12.390625 C15.92302246 12.41157227 14.69760742 12.43251953 13.43505859 12.45410156 C8.18641617 11.76025118 5.15595787 9.2472177 1.625 5.4375 C0 3 0 3 0 0 Z " fill="#399F31" transform="translate(177,354)"/>
<path d="M0 0 C11.55 0 23.1 0 35 0 C32.73801917 5.65495208 32.73801917 5.65495208 29.5625 8.25 C28.96566406 8.75015625 28.36882812 9.2503125 27.75390625 9.765625 C24.15038104 12.30173628 20.84307068 12.11693697 16.58203125 12.09765625 C15.32841797 12.09443359 14.07480469 12.09121094 12.78320312 12.08789062 C11.47287109 12.07951172 10.16253906 12.07113281 8.8125 12.0625 C7.47721519 12.05748317 6.14192859 12.05292059 4.80664062 12.04882812 C1.53771527 12.03702695 -1.73111991 12.02056297 -5 12 C-3.40895202 7.96118589 -1.71201309 3.99469722 0 0 Z " fill="#45A43E" transform="translate(288,354)"/>
<path d="M0 0 C0.84026396 1.76755526 1.67198722 3.53917263 2.5 5.3125 C2.9640625 6.29863281 3.428125 7.28476563 3.90625 8.30078125 C5 11 5 11 5 14 C-7.87 14 -20.74 14 -34 14 C-25.45361459 5.45361459 -12.14457841 0 0 0 Z " fill="#3DA035" transform="translate(176,217)"/>
<path d="M0 0 C12.0000692 0.92308225 22.89367686 5.63850047 33 12 C33.495 12.99 33.495 12.99 34 14 C20.8 14 7.6 14 -6 14 C-4.7290827 10.1872481 -3.66918099 7.09374991 -1.875 3.625 C-1.34519531 2.59246094 -1.34519531 2.59246094 -0.8046875 1.5390625 C-0.53914063 1.03117188 -0.27359375 0.52328125 0 0 Z " fill="#3C9D32" transform="translate(324,217)"/>
<path d="M0 0 C1.06669922 0.00322266 2.13339844 0.00644531 3.23242188 0.00976562 C4.88661133 0.02233398 4.88661133 0.02233398 6.57421875 0.03515625 C7.69634766 0.03966797 8.81847656 0.04417969 9.97460938 0.04882812 C12.73703385 0.06058312 15.49934873 0.07701548 18.26171875 0.09765625 C18.26171875 0.75765625 18.26171875 1.41765625 18.26171875 2.09765625 C20.24171875 2.42765625 22.22171875 2.75765625 24.26171875 3.09765625 C24.26171875 3.75765625 24.26171875 4.41765625 24.26171875 5.09765625 C25.91171875 5.09765625 27.56171875 5.09765625 29.26171875 5.09765625 C28.60171875 6.74765625 27.94171875 8.39765625 27.26171875 10.09765625 C28.25171875 11.08765625 29.24171875 12.07765625 30.26171875 13.09765625 C28.26171875 14.09765625 28.26171875 14.09765625 26.50927734 13.67626953 C25.81656738 13.42603027 25.12385742 13.17579102 24.41015625 12.91796875 C23.64058594 12.64855469 22.87101562 12.37914062 22.078125 12.1015625 C20.47375905 11.52399076 18.86958633 10.94588195 17.265625 10.3671875 C8.16431979 7.18248535 -0.67098289 6.88420242 -10.23828125 6.53515625 C-11.346875 6.49197266 -12.45546875 6.44878906 -13.59765625 6.40429688 C-16.31109631 6.29903411 -19.02461542 6.19689779 -21.73828125 6.09765625 C-19.5693489 3.9287239 -18.29901437 3.45748823 -15.42578125 2.53515625 C-14.66652344 2.28636719 -13.90726562 2.03757813 -13.125 1.78125 C-8.68391813 0.50925437 -4.62341375 -0.02472414 0 0 Z " fill="#3AA331" transform="translate(318.73828125,204.90234375)"/>
<path d="M0 0 C-0.845625 0.53625 -1.69125 1.0725 -2.5625 1.625 C-3.71297616 2.40990429 -4.85856463 3.20200536 -6 4 C-6.54140625 4.36609375 -7.0828125 4.7321875 -7.640625 5.109375 C-16.2835935 11.65218293 -22.32225509 22.64605303 -25 33 C-23.02 33 -21.04 33 -19 33 C-19 33.33 -19 33.66 -19 34 C-21.97 34 -24.94 34 -28 34 C-28 41.26 -28 48.52 -28 56 C-28.33 56 -28.66 56 -29 56 C-29 48.41 -29 40.82 -29 33 C-29.99 33 -30.98 33 -32 33 C-31.06362014 22.3252696 -26.74147066 14.1519239 -19.06640625 6.67578125 C-14.03963617 2.59925126 -6.50515547 -2.16838516 0 0 Z " fill="#EAF2EC" transform="translate(284,175)"/>
<path d="M0 0 C10.77971171 1.12384229 18.6384182 6.44791932 25.4609375 14.7578125 C29.62131329 20.81886758 32.35915272 26.57751038 32 34 C27.32798795 35.20568053 22.78503708 35.09382426 18 35 C18 34.67 18 34.34 18 34 C20.31 34 22.62 34 25 34 C21.09197129 19.97707345 12.40526096 8.63400674 0 1 C0 0.67 0 0.34 0 0 Z " fill="#EBF3EE" transform="translate(216,174)"/>
<path d="M0 0 C1.70349609 0.13148438 1.70349609 0.13148438 3.44140625 0.265625 C6.4375 0.75 6.4375 0.75 9.4375 2.75 C8.53 3.141875 7.6225 3.53375 6.6875 3.9375 C1.55227386 6.80137612 -0.38644371 9.85305179 -2 15.375 C-2.99109466 18.60683041 -3.36834441 19.58073615 -6 21.875 C-8.5625 22.75 -8.5625 22.75 -10.8125 22.625 C-12.5625 21.75 -12.5625 21.75 -13.5625 18.75 C-14.21064321 12.43060366 -13.36204246 7.44906858 -10.5625 1.75 C-7.13928186 -0.74462104 -4.09957778 -0.35445724 0 0 Z " fill="#194E36" transform="translate(270.5625,333.25)"/>
<path d="M0 0 C0 0.99 0 1.98 0 3 C0.99 3.185625 1.98 3.37125 3 3.5625 C7.97387463 4.9458271 11.4765119 8.34838506 15 12 C15 12.33 15 12.66 15 13 C0.15262596 13.85988653 0.15262596 13.85988653 -4.4375 10.8125 C-7 8 -7 8 -7.4375 5.1875 C-7.293125 4.465625 -7.14875 3.74375 -7 3 C-8.32 3 -9.64 3 -11 3 C-11 3.99 -11 4.98 -11 6 C-11.66 6 -12.32 6 -13 6 C-13 6.66 -13 7.32 -13 8 C-12.38125 8.0825 -11.7625 8.165 -11.125 8.25 C-9 9 -9 9 -7.8671875 11.046875 C-7.58101562 11.69140625 -7.29484375 12.3359375 -7 13 C-8.95825873 13.02694851 -10.91662226 13.04637218 -12.875 13.0625 C-13.96554688 13.07410156 -15.05609375 13.08570313 -16.1796875 13.09765625 C-19 13 -19 13 -21 12 C-21.625 9.9375 -21.625 9.9375 -22 8 C-23.32 7.67 -24.64 7.34 -26 7 C-7.45801527 0 -7.45801527 0 0 0 Z " fill="#E9F6E9" transform="translate(220,218)"/>
<path d="M0 0 C0.66 0 1.32 0 2 0 C2 0.99 2 1.98 2 3 C-5.59 3.33 -13.18 3.66 -21 4 C-13.41 4.33 -5.82 4.66 2 5 C2 5.33 2 5.66 2 6 C-5.59 6 -13.18 6 -21 6 C-21 6.99 -21 7.98 -21 9 C-22.32 9.33 -23.64 9.66 -25 10 C-25 9.34 -25 8.68 -25 8 C-34.81369132 10.46432693 -43.87772771 12.91470809 -52.71484375 17.9609375 C-55 19 -55 19 -58 18 C-58 15 -58 15 -56.7421875 13.4609375 C-41.93101527 1.04080653 -18.19674285 1.12116907 0 1 C0 0.67 0 0.34 0 0 Z " fill="#DFF0DE" transform="translate(201,209)"/>
<path d="M0 0 C6.04801071 0.54981916 11.30601106 1.90429574 17 4 C16.34 4.99 15.68 5.98 15 7 C14.67 8.32 14.34 9.64 14 11 C9.71 11 5.42 11 1 11 C1.66 9.35 2.32 7.7 3 6 C-1.32371893 8.02633069 -1.32371893 8.02633069 -5 11 C-7.58064129 11.14497985 -10.04943884 11.18677545 -12.625 11.125 C-13.33140625 11.11597656 -14.0378125 11.10695312 -14.765625 11.09765625 C-16.51056098 11.07407603 -18.25532295 11.03820461 -20 11 C-19.04578192 9.85073734 -18.08647955 8.70569459 -17.125 7.5625 C-16.32449219 6.60537109 -16.32449219 6.60537109 -15.5078125 5.62890625 C-14 4 -14 4 -12 3 C-9.28239892 2.92818179 -6.59140612 2.90700494 -3.875 2.9375 C-3.12089844 2.94201172 -2.36679687 2.94652344 -1.58984375 2.95117188 C0.27347127 2.96296501 2.13674555 2.98090058 4 3 C2.68 2.01 1.36 1.02 0 0 Z " fill="#E4F1E3" transform="translate(285,220)"/>
<path d="M0 0 C9.40212264 -0.27653302 9.40212264 -0.27653302 13 2 C14.15716511 4.31433022 14.23210436 5.86060812 14.3125 8.4375 C14.34988281 9.21996094 14.38726562 10.00242187 14.42578125 10.80859375 C14 13 14 13 12.30859375 14.7734375 C9.56034765 16.23358856 7.8406773 16.30950042 4.75 16.1875 C3.1825 16.125625 1.615 16.06375 0 16 C0 10.72 0 5.44 0 0 Z " fill="#F7FAFA" transform="translate(174,260)"/>
<path d="M0 0 C0.33 0.66 0.66 1.32 1 2 C1.99 1.67 2.98 1.34 4 1 C4 1.99 4 2.98 4 4 C4.66 4 5.32 4 6 4 C6.05416188 5.60379341 6.09286638 7.20811406 6.125 8.8125 C6.14820313 9.70582031 6.17140625 10.59914063 6.1953125 11.51953125 C6 14 6 14 4 17 C0.37886858 16.75310468 -1.53324973 16.40367591 -4.3125 14 C-6.53734154 10.04472615 -6.8049085 6.47734991 -7 2 C-4 0 -4 0 0 0 Z " fill="#20543C" transform="translate(237,339)"/>
<path d="M0 0 C12.06323538 0.63490713 23.50632319 5.197614 34 11 C33.01 12.32 32.02 13.64 31 15 C27.46959582 13.91372179 24.14968546 12.62905648 20.8125 11.0625 C14.19902029 8.07468429 7.31498619 5.736871 0 6 C0 4.02 0 2.04 0 0 Z " fill="#EAF4EA" transform="translate(323,212)"/>
<path d="M0 0 C1.95583008 0.04060547 1.95583008 0.04060547 3.95117188 0.08203125 C7.15665897 0.15248152 10.35871337 0.25095783 13.5625 0.375 C13.5625 0.705 13.5625 1.035 13.5625 1.375 C5.9725 1.375 -1.6175 1.375 -9.4375 1.375 C-9.4375 2.365 -9.4375 3.355 -9.4375 4.375 C-8.7775 4.705 -8.1175 5.035 -7.4375 5.375 C-9.0771875 5.7771875 -9.0771875 5.7771875 -10.75 6.1875 C-14.25963297 7.31772079 -15.25710617 7.65106959 -17.4375 10.375 C-18.32585992 12.50288757 -18.32585992 12.50288757 -18.9375 14.8125 C-19.98131645 18.15053801 -20.84975269 20.89507549 -23.4375 23.375 C-24.4275 23.375 -25.4175 23.375 -26.4375 23.375 C-26.00772272 19.39956017 -25.02485951 15.67269027 -23.8125 11.875 C-23.53148437 10.9778125 -23.25046875 10.080625 -22.9609375 9.15625 C-17.58633491 -0.65584499 -10.457474 -0.41175314 0 0 Z " fill="#EAF3EA" transform="translate(291.4375,335.625)"/>
<path d="M0 0 C3.88210188 3.20196985 6.63313782 6.63038119 7.9375 11.5 C7.958125 12.325 7.97875 13.15 8 14 C7.67 13.01 7.34 12.02 7 11 C5.02 11.99 5.02 11.99 3 13 C3 12.01 3 11.02 3 10 C0.64828869 10.59861742 -1.6859378 11.26924352 -4 12 C-4.33 12.66 -4.66 13.32 -5 14 C-6.65 11.69 -8.3 9.38 -10 7 C-9.34 6.67 -8.68 6.34 -8 6 C-8.33 4.02 -8.66 2.04 -9 0 C-5.64279212 -1.11906929 -3.39050491 -0.99209344 0 0 Z " fill="#348B33" transform="translate(234,329)"/>
<path d="M0 0 C4.37487331 -0.08738991 8.74952078 -0.140524 13.125 -0.1875 C14.3625 -0.21263672 15.6 -0.23777344 16.875 -0.26367188 C18.07382813 -0.27333984 19.27265625 -0.28300781 20.5078125 -0.29296875 C21.60754395 -0.3086792 22.70727539 -0.32438965 23.84033203 -0.34057617 C28.57747669 0.170034 31.85338277 1.88523325 35.25 5.1875 C38.23881562 9.99095368 39.7895863 15.54555994 38.5 21.1875 C38.335 21.785625 38.17 22.38375 38 23 C33.12696297 18.89638987 32.25746243 15.99712852 31 10 C29.16666667 6.83333333 29.16666667 6.83333333 26 5 C26.33 4.34 26.66 3.68 27 3 C24.37276604 1.68638302 22.27389439 1.78746091 19.3359375 1.68359375 C18.21445313 1.64169922 17.09296875 1.59980469 15.9375 1.55664062 C14.761875 1.51732422 13.58625 1.47800781 12.375 1.4375 C10.59996094 1.37272461 10.59996094 1.37272461 8.7890625 1.30664062 C5.85949672 1.20032574 2.92984412 1.09829358 0 1 C0 0.67 0 0.34 0 0 Z " fill="#F2F6F2" transform="translate(194,336)"/>
<path d="M0 0 C3.14868574 1.92064918 5.63484395 4.17401126 8 7 C8 7.33 8 7.66 8 8 C5.60293877 8.10854617 3.21084162 8.18753157 0.8125 8.25 C0.13896484 8.28351563 -0.53457031 8.31703125 -1.22851562 8.3515625 C-4.84777691 8.42218223 -6.83110351 8.10553212 -9.92578125 6.171875 C-12 4 -12 4 -13 1 C-8.96945074 -1.01527463 -4.35811101 -0.74292631 0 0 Z " fill="#41A432" transform="translate(227,223)"/>
<path d="M0 0 C0.87527344 -0.01417969 1.75054687 -0.02835938 2.65234375 -0.04296875 C5.0625 0.1875 5.0625 0.1875 8.0625 2.1875 C6.07749521 5.0747797 5.05137826 6.47527829 2.0625 8.1875 C-2.98878374 8.72588134 -7.87791187 8.53510529 -12.9375 8.1875 C-11.98328192 7.03823734 -11.02397955 5.89319459 -10.0625 4.75 C-9.52882813 4.11191406 -8.99515625 3.47382813 -8.4453125 2.81640625 C-5.81490206 -0.02525476 -3.73380938 0.02741417 0 0 Z " fill="#41A236" transform="translate(277.9375,222.8125)"/>
<path d="M0 0 C0.66 0 1.32 0 2 0 C2.391875 0.94875 2.78375 1.8975 3.1875 2.875 C5.19793856 6.34127338 6.22699642 6.9802693 10 8 C9.401875 8.433125 8.80375 8.86625 8.1875 9.3125 C5.02346954 11.7533235 3.28201062 13.15396813 2 17 C1.34 17 0.68 17 0 17 C-0.61875 16.05125 -1.2375 15.1025 -1.875 14.125 C-3.87924473 11.17758128 -4.74790731 10.16146167 -8 9 C-7 7 -7 7 -4.5625 5.625 C-1.87592252 3.92131672 -1.10510897 2.91346909 0 0 Z " fill="#45A53B" transform="translate(366,186)"/>
<path d="M0 0 C1.70349609 0.13148438 1.70349609 0.13148438 3.44140625 0.265625 C6.4375 0.75 6.4375 0.75 9.4375 2.75 C8.550625 3.141875 7.66375 3.53375 6.75 3.9375 C3.31620392 5.81636955 1.07208231 7.88295455 -1.5625 10.75 C-1.8925 9.43 -2.2225 8.11 -2.5625 6.75 C-5.8625 7.08 -9.1625 7.41 -12.5625 7.75 C-11.09886478 2.13939832 -11.09886478 2.13939832 -8.89453125 0.5390625 C-5.77092612 -0.51783572 -3.27637171 -0.28328129 0 0 Z " fill="#216633" transform="translate(270.5625,333.25)"/>
<path d="M0 0 C7.85713012 0.3976558 15.61280586 1.10333288 23 4 C23.33 4.66 23.66 5.32 24 6 C14.43 6.33 4.86 6.66 -5 7 C-5 6.34 -5 5.68 -5 5 C-3.35 4.67 -1.7 4.34 0 4 C0 2.68 0 1.36 0 0 Z " fill="#4BA63F" transform="translate(178,205)"/>
<path d="M0 0 C3 3 6 6 9 9 C8.071875 9.598125 7.14375 10.19625 6.1875 10.8125 C3.79745282 12.45272845 1.91529747 13.8718917 0 16 C-2.66666667 13.33333333 -5.33333333 10.66666667 -8 8 C-7.05125 7.4225 -6.1025 6.845 -5.125 6.25 C-2.23865902 4.17183449 -1.15904259 3.24531925 0 0 Z " fill="#41A037" transform="translate(132,186)"/>
<path d="M0 0 C1.31613281 -0.00257813 2.63226563 -0.00515625 3.98828125 -0.0078125 C7.04670294 0.10199356 9.7266392 0.40339756 12.6875 1.125 C12.048125 1.599375 11.40875 2.07375 10.75 2.5625 C8.80456694 3.96238726 8.80456694 3.96238726 7.6875 5.125 C6.02132885 5.16563832 4.35361905 5.167721 2.6875 5.125 C2.6875 5.785 2.6875 6.445 2.6875 7.125 C2.13578125 6.98191406 1.5840625 6.83882812 1.015625 6.69140625 C-1.49964769 6.0794691 -4.02292508 5.56373189 -6.5625 5.0625 C-7.45453125 4.88589844 -8.3465625 4.70929688 -9.265625 4.52734375 C-9.94109375 4.39457031 -10.6165625 4.26179687 -11.3125 4.125 C-10.6525 3.795 -9.9925 3.465 -9.3125 3.125 C-9.3125 2.465 -9.3125 1.805 -9.3125 1.125 C-6.32476752 -0.36886624 -3.2721842 -0.01871602 0 0 Z " fill="#339D2A" transform="translate(170.3125,204.875)"/>
<path d="M0 0 C0.66 0 1.32 0 2 0 C2 0.99 2 1.98 2 3 C-5.59 3.33 -13.18 3.66 -21 4 C-13.41 4.33 -5.82 4.66 2 5 C2 5.33 2 5.66 2 6 C-5.59 6 -13.18 6 -21 6 C-21 6.99 -21 7.98 -21 9 C-22.32 9.33 -23.64 9.66 -25 10 C-25 9.34 -25 8.68 -25 8 C-25.99 8 -26.98 8 -28 8 C-28 7.01 -28 6.02 -28 5 C-27.34 5 -26.68 5 -26 5 C-26 4.34 -26 3.68 -26 3 C-23.42788678 1.71394339 -21.43093034 1.78956059 -18.5546875 1.68359375 C-17.47832031 1.64169922 -16.40195313 1.59980469 -15.29296875 1.55664062 C-14.16503906 1.51732422 -13.03710938 1.47800781 -11.875 1.4375 C-10.73933594 1.39431641 -9.60367188 1.35113281 -8.43359375 1.30664062 C-5.62252232 1.2003396 -2.81136055 1.09830595 0 1 C0 0.67 0 0.34 0 0 Z " fill="#E1F0E0" transform="translate(201,209)"/>
<path d="M0 0 C1.5613959 2.93270882 2.66538899 5.82068273 3.625 9 C3.88539063 9.845625 4.14578125 10.69125 4.4140625 11.5625 C5 14 5 14 5 18 C2.03 18 -0.94 18 -4 18 C-3.35155914 13.80716882 -2.48783354 9.73500079 -1.4375 5.625 C-1.16808594 4.56539063 -0.89867187 3.50578125 -0.62109375 2.4140625 C-0.31365234 1.21910156 -0.31365234 1.21910156 0 0 Z " fill="#F3F7F6" transform="translate(132,264)"/>
<path d="M0 0 C8.91 0 17.82 0 27 0 C27 0.33 27 0.66 27 1 C24.50018262 1.1698905 22.00020399 1.33597953 19.5 1.5 C18.80390625 1.54769531 18.1078125 1.59539062 17.390625 1.64453125 C12.58304475 1.95613367 7.81771254 2.04340282 3 2 C4 2 4 2 7 3 C7 5.31 7 7.62 7 10 C8.65 10.33 10.3 10.66 12 11 C9.8614515 13.1385485 8.86724686 13.42655063 6 14 C4.9923048 12.2335343 3.99408286 10.46166177 3 8.6875 C2.443125 7.70136719 1.88625 6.71523437 1.3125 5.69921875 C0 3 0 3 0 0 Z " fill="#3EA234" transform="translate(180,215)"/>
<path d="M0 0 C0.33 0 0.66 0 1 0 C1.14695313 1.06927734 1.14695313 1.06927734 1.296875 2.16015625 C2.25833561 8.31847723 3.53824107 12.80736161 7 18 C6.34 18 5.68 18 5 18 C4.67 18.99 4.34 19.98 4 21 C-5.57 21 -15.14 21 -25 21 C-25 20.67 -25 20.34 -25 20 C-16.09 19.67 -7.18 19.34 2 19 C0.68 16.36 -0.64 13.72 -2 11 C-1.34 11 -0.68 11 0 11 C0 7.37 0 3.74 0 0 Z " fill="#D8ECD6" transform="translate(214,346)"/>
<path d="M0 0 C11.22 0 22.44 0 34 0 C35.98 3.96 37.96 7.92 40 12 C37.36 12 34.72 12 32 12 C32.66 11.67 33.32 11.34 34 11 C34 10.34 34 9.68 34 9 C34.66 9 35.32 9 36 9 C36 8.34 36 7.68 36 7 C34.68 7.33 33.36 7.66 32 8 C32 7.01 32 6.02 32 5 C32.66 5 33.32 5 34 5 C34 4.01 34 3.02 34 2 C33.01 2.33 32.02 2.66 31 3 C30.01 2.67 29.02 2.34 28 2 C25.86338742 1.84929203 23.72287876 1.7514034 21.58203125 1.68359375 C20.32841797 1.64169922 19.07480469 1.59980469 17.78320312 1.55664062 C15.81770508 1.49766602 15.81770508 1.49766602 13.8125 1.4375 C12.47720022 1.39429008 11.14191348 1.350675 9.80664062 1.30664062 C6.53786703 1.20043498 3.26901667 1.09839003 0 1 C0 0.67 0 0.34 0 0 Z " fill="#69B264" transform="translate(177,354)"/>
<path d="M0 0 C0.66 0 1.32 0 2 0 C2.25 5.625 2.25 5.625 0 9 C13.53 8.67 27.06 8.34 41 8 C41 8.66 41 9.32 41 10 C27.14 10 13.28 10 -1 10 C-2.125 3.25 -2.125 3.25 0 0 Z M-4 6 C-3.34 6.33 -2.68 6.66 -2 7 C-2.66 8.32 -3.32 9.64 -4 11 C-4.66 9.68 -5.32 8.36 -6 7 C-5.34 6.67 -4.68 6.34 -4 6 Z " fill="#E3F9E0" transform="translate(318,222)"/>
<path d="M0 0 C1.25361328 0.00644531 2.50722656 0.01289063 3.79882812 0.01953125 C5.76432617 0.04466797 5.76432617 0.04466797 7.76953125 0.0703125 C9.10481112 0.08034611 10.44009814 0.0894713 11.77539062 0.09765625 C15.0444514 0.12125958 18.31315153 0.15418656 21.58203125 0.1953125 C21.58203125 0.5253125 21.58203125 0.8553125 21.58203125 1.1953125 C13.99203125 1.1953125 6.40203125 1.1953125 -1.41796875 1.1953125 C-1.41796875 2.1853125 -1.41796875 3.1753125 -1.41796875 4.1953125 C-0.75796875 4.5253125 -0.09796875 4.8553125 0.58203125 5.1953125 C-0.51109375 5.4840625 -1.60421875 5.7728125 -2.73046875 6.0703125 C-6.4581072 7.01424454 -6.4581072 7.01424454 -9.41796875 9.1953125 C-9.60546875 5.8203125 -9.60546875 5.8203125 -9.41796875 2.1953125 C-5.83128562 -0.19580959 -4.25400306 -0.03849777 0 0 Z " fill="#D7EAD6" transform="translate(283.41796875,335.8046875)"/>
<path d="M0 0 C-0.33 1.65 -0.66 3.3 -1 5 C-9.58 5 -18.16 5 -27 5 C-27 4.67 -27 4.34 -27 4 C-24.36 3.67 -21.72 3.34 -19 3 C-19 2.67 -19 2.34 -19 2 C-18.08476562 1.93941406 -17.16953125 1.87882812 -16.2265625 1.81640625 C-14.44378906 1.69072266 -14.44378906 1.69072266 -12.625 1.5625 C-11.44164062 1.48128906 -10.25828125 1.40007812 -9.0390625 1.31640625 C-5.50477507 0.94844059 -3.68877522 0 0 0 Z " fill="#369E2F" transform="translate(312,361)"/>
<path d="M0 0 C2.33944736 0.28730055 4.6739143 0.61936779 7 1 C6.34 2.65 5.68 4.3 5 6 C5.99 6.99 6.98 7.98 8 9 C6 10 6 10 2.5234375 9.00390625 C1.13802064 8.53099953 -0.24471547 8.05018356 -1.625 7.5625 C-2.33140625 7.31951172 -3.0378125 7.07652344 -3.765625 6.82617188 C-5.51273287 6.22412795 -7.25667786 5.61291983 -9 5 C-5.25 3.875 -5.25 3.875 -3 5 C-2.690625 4.360625 -2.38125 3.72125 -2.0625 3.0625 C-1 1 -1 1 0 0 Z " fill="#4BA844" transform="translate(341,209)"/>
<path d="M0 0 C5.56890517 0.47986031 10.67067568 1.29915181 16 3 C14.91796875 5.015625 14.91796875 5.015625 13 7 C9.86328125 7.171875 9.86328125 7.171875 6.3125 6.75 C4.54326172 6.55664062 4.54326172 6.55664062 2.73828125 6.359375 C1.83464844 6.24078125 0.93101562 6.1221875 0 6 C0 4.02 0 2.04 0 0 Z " fill="#EDF7ED" transform="translate(323,212)"/>
<path d="M0 0 C4.37487331 -0.08738991 8.74952078 -0.140524 13.125 -0.1875 C14.3625 -0.21263672 15.6 -0.23777344 16.875 -0.26367188 C18.07382813 -0.27333984 19.27265625 -0.28300781 20.5078125 -0.29296875 C21.60754395 -0.3086792 22.70727539 -0.32438965 23.84033203 -0.34057617 C27.51080657 0.05505912 29.86406674 1.07502463 33 3 C33.66 3.99 34.32 4.98 35 6 C34.34 6.33 33.68 6.66 33 7 C32.34 7.99 31.68 8.98 31 10 C30.34 9.01 29.68 8.02 29 7 C28.01 6.34 27.02 5.68 26 5 C26.33 4.34 26.66 3.68 27 3 C24.37276604 1.68638302 22.27389439 1.78746091 19.3359375 1.68359375 C18.21445313 1.64169922 17.09296875 1.59980469 15.9375 1.55664062 C14.761875 1.51732422 13.58625 1.47800781 12.375 1.4375 C10.59996094 1.37272461 10.59996094 1.37272461 8.7890625 1.30664062 C5.85949672 1.20032574 2.92984412 1.09829358 0 1 C0 0.67 0 0.34 0 0 Z " fill="#D9EAD9" transform="translate(194,336)"/>
<path d="M0 0 C0 3 0 3 -1 5 C0.65 5 2.3 5 4 5 C4 5.33 4 5.66 4 6 C6.31 6.33 8.62 6.66 11 7 C11 7.66 11 8.32 11 9 C5.39 9.66 -0.22 10.32 -6 11 C-4.86382265 5.31911326 -3.71674706 4.09795189 0 0 Z " fill="#4BA545" transform="translate(311,191)"/>
<path d="M0 0 C0 0.66 0 1.32 0 2 C-0.66 2 -1.32 2 -2 2 C-2.33 3.32 -2.66 4.64 -3 6 C-9.435 6.495 -9.435 6.495 -16 7 C-16.33 6.34 -16.66 5.68 -17 5 C-15.35 4.67 -13.7 4.34 -12 4 C-12 3.34 -12 2.68 -12 2 C-10.7625 1.67 -9.525 1.34 -8.25 1 C-7.55390625 0.814375 -6.8578125 0.62875 -6.140625 0.4375 C-4 0 -4 0 0 0 Z " fill="#F0F8F1" transform="translate(175,212)"/>
<path d="M0 0 C1.32 0 2.64 0 4 0 C4 1.65 4 3.3 4 5 C6.475 5.99 6.475 5.99 9 7 C7.453125 8.984375 7.453125 8.984375 5 11 C1.546875 11.390625 1.546875 11.390625 -2.25 11.25 C-3.51328125 11.21390625 -4.7765625 11.1778125 -6.078125 11.140625 C-7.52445313 11.07101563 -7.52445313 11.07101563 -9 11 C-8.67 10.34 -8.34 9.68 -8 9 C-4.04 9.33 -0.08 9.66 4 10 C1.47434165 5.84188612 1.47434165 5.84188612 -2 5 C-2 4.34 -2 3.68 -2 3 C-1.34 3 -0.68 3 0 3 C0 2.01 0 1.02 0 0 Z " fill="#EBF8EA" transform="translate(209,221)"/>
<path d="M0 0 C-3.26545761 1.88391785 -6.28111761 2.49287967 -10 3 C-8.02 3.66 -6.04 4.32 -4 5 C-4 5.33 -4 5.66 -4 6 C-10.27 6 -16.54 6 -23 6 C-17.43441726 0.43441726 -7.42741432 -0.14563557 0 0 Z " fill="#65B25F" transform="translate(320,205)"/>
<path d="M0 0 C2.5625 2.25 2.5625 2.25 5 5 C4.8125 7.3125 4.8125 7.3125 4 9 C4 8.01 4 7.02 4 6 C2.02 6.99 2.02 6.99 0 8 C0 7.01 0 6.02 0 5 C-2.35171131 5.59861742 -4.6859378 6.26924352 -7 7 C-7.33 7.66 -7.66 8.32 -8 9 C-9.32 7.02 -10.64 5.04 -12 3 C-10.948125 3.020625 -9.89625 3.04125 -8.8125 3.0625 C-5.67295096 3.01103198 -3.03116604 2.73482813 0 2 C0 1.34 0 0.68 0 0 Z " fill="#276A34" transform="translate(237,334)"/>
<path d="M0 0 C0.33 0 0.66 0 1 0 C1 3.3 1 6.6 1 10 C1.66 10 2.32 10 3 10 C2.38909774 16.47556391 2.38909774 16.47556391 0.5625 18.9375 C-1 20 -1 20 -3 20 C-4.34882408 20.63474075 -5.6846659 21.29848848 -7 22 C-6.57847656 21.33355469 -6.15695312 20.66710937 -5.72265625 19.98046875 C-1.71531336 13.23870366 -0.03034506 7.8441969 0 0 Z " fill="#DAEBD7" transform="translate(284,344)"/>
<path d="M0 0 C1.8125 1.375 1.8125 1.375 3 3 C3 3.66 3 4.32 3 5 C-0.96 5 -4.92 5 -9 5 C-9.33 4.01 -9.66 3.02 -10 2 C-6.53030166 0.41385219 -3.8262394 -0.50345255 0 0 Z " fill="#5BAB50" transform="translate(210,226)"/>
<path d="M0 0 C6.6 0 13.2 0 20 0 C20 0.66 20 1.32 20 2 C12.97360585 2.74805717 6.06608191 3.13794954 -1 3 C-0.67 2.01 -0.34 1.02 0 0 Z " fill="#49A446" transform="translate(327,182)"/>
<path d="M0 0 C0 0.99 0 1.98 0 3 C2.97 3.495 2.97 3.495 6 4 C6 4.33 6 4.66 6 5 C4.93458984 5.07347656 4.93458984 5.07347656 3.84765625 5.1484375 C2.92855469 5.22320312 2.00945312 5.29796875 1.0625 5.375 C0.14597656 5.44460937 -0.77054688 5.51421875 -1.71484375 5.5859375 C-2.84599609 5.79089844 -2.84599609 5.79089844 -4 6 C-4.33 6.66 -4.66 7.32 -5 8 C-5.66 8 -6.32 8 -7 8 C-7 6.35 -7 4.7 -7 3 C-9.64 3.33 -12.28 3.66 -15 4 C-12.02775596 2.01850397 -10.37032887 1.51201979 -6.9375 0.875 C-6.05964844 0.70742187 -5.18179688 0.53984375 -4.27734375 0.3671875 C-2 0 -2 0 0 0 Z " fill="#CDE8CC" transform="translate(220,218)"/>
<path d="M0 0 C0.99 0 1.98 0 3 0 C3.33 1.98 3.66 3.96 4 6 C-5.9 6 -15.8 6 -26 6 C-26 5.67 -26 5.34 -26 5 C-13.625 4.505 -13.625 4.505 -1 4 C-0.67 2.68 -0.34 1.36 0 0 Z " fill="#349C2C" transform="translate(176,224)"/>
<path d="M0 0 C3.12290635 0.48578543 5.99580359 0.9986012 9 2 C9 2.99 9 3.98 9 5 C4.71 5 0.42 5 -4 5 C-2.68 3.35 -1.36 1.7 0 0 Z " fill="#44A536" transform="translate(290,226)"/>
<path d="M0 0 C2.64 0.33 5.28 0.66 8 1 C5.45312099 3.18303915 3.44767281 4.84738427 0.25 5.9375 C-0.4925 6.288125 -1.235 6.63875 -2 7 C-2.89386164 9.54775306 -2.89386164 9.54775306 -3 12 C-3.66 11.67 -4.32 11.34 -5 11 C-3.35 7.37 -1.7 3.74 0 0 Z " fill="#47A03D" transform="translate(324,217)"/>
<path d="M0 0 C1.65 0 3.3 0 5 0 C4.01 0.495 4.01 0.495 3 1 C3 6.61 3 12.22 3 18 C0.12563833 15.12563833 0.03237445 12.99972292 -0.09765625 8.984375 C-0.08605469 7.91703125 -0.07445312 6.8496875 -0.0625 5.75 C-0.04896484 4.13351562 -0.04896484 4.13351562 -0.03515625 2.484375 C-0.02355469 1.66453125 -0.01195312 0.8446875 0 0 Z " fill="#53A34D" transform="translate(215,341)"/>
<path d="M0 0 C2.10478604 0.11409682 4.20884577 0.24165361 6.3125 0.375 C7.48425781 0.44460938 8.65601563 0.51421875 9.86328125 0.5859375 C13 1 13 1 16 3 C15.071875 3.45375 14.14375 3.9075 13.1875 4.375 C9.96078611 5.9421633 9.96078611 5.9421633 7 8 C7 6.35 7 4.7 7 3 C4.36 2.67 1.72 2.34 -1 2 C-0.67 1.34 -0.34 0.68 0 0 Z " fill="#2D8032" transform="translate(264,333)"/>
<path d="M0 0 C0 0.99 0 1.98 0 3 C-5.17578125 6.22265625 -5.17578125 6.22265625 -7 7 C-7.99 6.67 -8.98 6.34 -10 6 C-10 3 -10 3 -8.9375 1.3125 C-6.02679298 -0.65926927 -3.41970529 -0.19356822 0 0 Z " fill="#ECF7EA" transform="translate(153,221)"/>
<path d="M0 0 C8.91 0 17.82 0 27 0 C27 0.33 27 0.66 27 1 C24.50018262 1.1698905 22.00020399 1.33597953 19.5 1.5 C18.80390625 1.54769531 18.1078125 1.59539062 17.390625 1.64453125 C13.76280631 1.87966765 10.22787971 1.98175493 6.59375 1.84375 C5.4078125 1.8953125 4.221875 1.946875 3 2 C2.01 3.485 2.01 3.485 1 5 C0.67 3.35 0.34 1.7 0 0 Z " fill="#4FA64D" transform="translate(180,215)"/>
<path d="M0 0 C1.19496094 0.13148438 1.19496094 0.13148438 2.4140625 0.265625 C3.06117188 0.42546875 3.70828125 0.5853125 4.375 0.75 C4.705 1.41 5.035 2.07 5.375 2.75 C1.06597166 4.96980248 -1.93590292 4.83209933 -6.625 3.75 C-6.955 3.09 -7.285 2.43 -7.625 1.75 C-4.3237992 -0.45080053 -3.73398842 -0.46218749 0 0 Z " fill="#267A2D" transform="translate(231.625,333.25)"/>
<path d="M0 0 C0.99 0 1.98 0 3 0 C3 0.66 3 1.32 3 2 C6.96 2 10.92 2 15 2 C15 2.66 15 3.32 15 4 C8.565 4.495 8.565 4.495 2 5 C1.34 3.35 0.68 1.7 0 0 Z " fill="#4FA347" transform="translate(156,196)"/>
<path d="M0 0 C0.99 0.33 1.98 0.66 3 1 C2.67 2.32 2.34 3.64 2 5 C3.32 4.67 4.64 4.34 6 4 C6 4.99 6 5.98 6 7 C5.38511719 6.9278125 4.77023437 6.855625 4.13671875 6.78125 C3.32847656 6.6884375 2.52023437 6.595625 1.6875 6.5 C0.48673828 6.36078125 0.48673828 6.36078125 -0.73828125 6.21875 C-3.11896555 5.95186537 -3.11896555 5.95186537 -6 6 C-4 4 -2 2 0 0 Z " fill="#3A9238" transform="translate(267,328)"/>
<path d="M0 0 C0.70125 0.07863281 1.4025 0.15726563 2.125 0.23828125 C4 0.6875 4 0.6875 6 2.6875 C2.0186217 4.0146261 -1.85045227 3.75665913 -6 3.6875 C-6 2.6975 -6 1.7075 -6 0.6875 C-3.63106495 -0.49696753 -2.5933174 -0.31939755 0 0 Z " fill="#479F39" transform="translate(212,216.3125)"/>
<path d="M0 0 C1.18916016 0.01353516 1.18916016 0.01353516 2.40234375 0.02734375 C4.35169281 0.05082988 6.30088575 0.08669863 8.25 0.125 C8.25 0.455 8.25 0.785 8.25 1.125 C7.29287109 1.21587891 7.29287109 1.21587891 6.31640625 1.30859375 C5.49011719 1.39238281 4.66382813 1.47617188 3.8125 1.5625 C2.57693359 1.68431641 2.57693359 1.68431641 1.31640625 1.80859375 C-0.73662025 1.91430815 -0.73662025 1.91430815 -1.75 3.125 C-3.60772162 3.03515699 -5.46247985 2.87888139 -7.3125 2.6875 C-8.83037109 2.53474609 -8.83037109 2.53474609 -10.37890625 2.37890625 C-11.16136719 2.29511719 -11.94382812 2.21132812 -12.75 2.125 C-8.77389214 -0.58986934 -4.61098023 -0.09940753 0 0 Z " fill="#34982A" transform="translate(328.75,204.875)"/>
<path d="M0 0 C0.66 0 1.32 0 2 0 C2.36923077 5.41538462 2.36923077 5.41538462 0.5 8.375 C0.005 8.91125 -0.49 9.4475 -1 10 C-2.23076923 4.58461538 -2.23076923 4.58461538 -1.0625 1.625 C-0.5365625 0.820625 -0.5365625 0.820625 0 0 Z M-4 6 C-3.34 6.33 -2.68 6.66 -2 7 C-2.66 8.32 -3.32 9.64 -4 11 C-4.66 9.68 -5.32 8.36 -6 7 C-5.34 6.67 -4.68 6.34 -4 6 Z " fill="#EFF8EE" transform="translate(318,222)"/>
<path d="M0 0 C-0.99 1.32 -1.98 2.64 -3 4 C-5.64 3.67 -8.28 3.34 -11 3 C-11 2.34 -11 1.68 -11 1 C-6.8204355 -1.78637633 -4.85331323 -0.79562512 0 0 Z " fill="#F5F9F4" transform="translate(339,215)"/>
<path d="M0 0 C0.33 0.99 0.66 1.98 1 3 C0.34 3 -0.32 3 -1 3 C-1 3.66 -1 4.32 -1 5 C-3.70879335 6.35439668 -6.00933268 6.06501451 -9 6 C-9 5.34 -9 4.68 -9 4 C-2.25 0 -2.25 0 0 0 Z " fill="#40A338" transform="translate(153,224)"/>
<path d="M0 0 C0.66 0 1.32 0 2 0 C3.51403812 4.84492197 2.36602172 8.2591011 1 13 C-0.41047468 10.36711392 -1.63856763 7.98181705 -2 5 C-1.0625 2.25 -1.0625 2.25 0 0 Z " fill="#4EA845" transform="translate(251,195)"/>
<path d="M0 0 C1.5625 1.6875 1.5625 1.6875 3 4 C2.6875 6.75 2.6875 6.75 2 9 C0.02 7.35 -1.96 5.7 -4 4 C-3.67 3.01 -3.34 2.02 -3 1 C-2.01 0.67 -1.02 0.34 0 0 Z " fill="#E1EDE2" transform="translate(231,350)"/>
<path d="M0 0 C0 0.99 0 1.98 0 3 C-3.3 3 -6.6 3 -10 3 C-10 2.34 -10 1.68 -10 1 C-6.78548731 -0.60725635 -3.56387464 -0.05748185 0 0 Z " fill="#32A025" transform="translate(190,330)"/>
<path d="M0 0 C3.625 0.3125 3.625 0.3125 5.5625 2.3125 C5.913125 2.9725 6.26375 3.6325 6.625 4.3125 C3.985 4.3125 1.345 4.3125 -1.375 4.3125 C-1.375 3.6525 -1.375 2.9925 -1.375 2.3125 C-2.365 1.9825 -3.355 1.6525 -4.375 1.3125 C-3.375 0.3125 -3.375 0.3125 0 0 Z " fill="#3B9A2C" transform="translate(223.375,222.6875)"/>
<path d="M0 0 C0.57234375 0.21527344 1.1446875 0.43054688 1.734375 0.65234375 C0.084375 1.97234375 -1.565625 3.29234375 -3.265625 4.65234375 C-3.265625 3.99234375 -3.265625 3.33234375 -3.265625 2.65234375 C-4.915625 3.97234375 -6.565625 5.29234375 -8.265625 6.65234375 C-8.925625 5.99234375 -9.585625 5.33234375 -10.265625 4.65234375 C-9.02618224 3.78292881 -7.77355441 2.93228918 -6.515625 2.08984375 C-5.81953125 1.61417969 -5.1234375 1.13851562 -4.40625 0.6484375 C-2.265625 -0.34765625 -2.265625 -0.34765625 0 0 Z " fill="#D4EFD4" transform="translate(332.265625,193.34765625)"/>
<path d="M0 0 C0.66 0 1.32 0 2 0 C2 0.99 2 1.98 2 3 C3.3921875 2.690625 3.3921875 2.690625 4.8125 2.375 C8 2 8 2 11 4 C4.565 4.495 4.565 4.495 -2 5 C-1.34 3.35 -0.68 1.7 0 0 Z " fill="#42A43B" transform="translate(285,361)"/>
<path d="M0 0 C1.98 0 3.96 0 6 0 C6 1.98 6 3.96 6 6 C5.01 6.495 5.01 6.495 4 7 C4 6.01 4 5.02 4 4 C3.01 4.33 2.02 4.66 1 5 C0.67 3.35 0.34 1.7 0 0 Z " fill="#319C2E" transform="translate(311,216)"/>
<path d="M0 0 C0 1.98 0 3.96 0 6 C-4.875 3.375 -4.875 3.375 -6 0 C-3.50907189 -1.24546405 -2.58919267 -0.7767578 0 0 Z " fill="#4CAB49" transform="translate(220,224)"/>
<path d="M0 0 C-4.5 3 -4.5 3 -9 6 C-9.33 4.35 -9.66 2.7 -10 1 C-3.375 -1.125 -3.375 -1.125 0 0 Z " fill="#B7CDC5" transform="translate(284,175)"/>
<path d="M0 0 C0 1.32 0 2.64 0 4 C-0.61875 4.144375 -1.2375 4.28875 -1.875 4.4375 C-4.03258322 4.93152225 -4.03258322 4.93152225 -6 6 C-6.33 4.35 -6.66 2.7 -7 1 C-4.50935112 0.31292445 -2.62113708 0 0 0 Z " fill="#30942B" transform="translate(232,328)"/>
<path d="M0 0 C1.65 0.33 3.3 0.66 5 1 C3.02579865 3.52259061 2.03254358 3.9929808 -1.1875 4.6875 C-2.5796875 4.8421875 -2.5796875 4.8421875 -4 5 C-2.68 3.35 -1.36 1.7 0 0 Z " fill="#45A33A" transform="translate(184,326)"/>
<path d="M0 0 C0.33 0.99 0.66 1.98 1 3 C-1.97 3 -4.94 3 -8 3 C-8 2.34 -8 1.68 -8 1 C-5.07175348 0.02391783 -3.04386724 -0.08226668 0 0 Z " fill="#3AA62F" transform="translate(208,227)"/>
<path d="M0 0 C1.32 0.66 2.64 1.32 4 2 C3.46930939 5.82097239 2.50298434 8.06171403 0 11 C0.20625 9.906875 0.4125 8.81375 0.625 7.6875 C1.40346525 3.9161599 1.40346525 3.9161599 -1 1 C-0.67 0.67 -0.34 0.34 0 0 Z " fill="#15572F" transform="translate(245,178)"/>
<path d="M0 0 C2.97 0.33 5.94 0.66 9 1 C8.67 1.99 8.34 2.98 8 4 C5.36 3.34 2.72 2.68 0 2 C0 1.34 0 0.68 0 0 Z " fill="#21732C" transform="translate(262,335)"/>
<path d="M0 0 C0.66 0 1.32 0 2 0 C2 0.99 2 1.98 2 3 C2.66 3.33 3.32 3.66 4 4 C3.34 5.32 2.68 6.64 2 8 C1.34 8 0.68 8 0 8 C-0.98120464 4.94736336 -0.98120464 3.05263664 0 0 Z " fill="#1F583C" transform="translate(255,185)"/>
<path d="M0 0 C0.66 0.33 1.32 0.66 2 1 C-0.97 3.97 -3.94 6.94 -7 10 C-7.66 9.67 -8.32 9.34 -9 9 C-6.31941902 5.42589203 -3.57410797 2.68058098 0 0 Z " fill="#DDEAE5" transform="translate(260,159)"/>
<path d="M0 0 C1.32 0.33 2.64 0.66 4 1 C4.33 2.98 4.66 4.96 5 7 C4.67 6.01 4.34 5.02 4 4 C2.02 4.99 2.02 4.99 0 6 C0 4.02 0 2.04 0 0 Z " fill="#3B754D" transform="translate(237,336)"/>
<path d="M0 0 C1.134375 0.020625 2.26875 0.04125 3.4375 0.0625 C3.4375 1.0525 3.4375 2.0425 3.4375 3.0625 C4.0975 3.3925 4.7575 3.7225 5.4375 4.0625 C3.7875 4.0625 2.1375 4.0625 0.4375 4.0625 C0.1075 3.4025 -0.2225 2.7425 -0.5625 2.0625 C-2.58713255 1.41036708 -2.58713255 1.41036708 -4.5625 1.0625 C-3.5625 0.0625 -3.5625 0.0625 0 0 Z " fill="#E0EEDF" transform="translate(278.5625,336.9375)"/>
<path d="M0 0 C0.33 0 0.66 0 1 0 C1 1.65 1 3.3 1 5 C3.46800047 3.84826645 5.04783565 2.95216435 7 1 C7 2.65 7 4.3 7 6 C4.36 6 1.72 6 -1 6 C-0.67 4.02 -0.34 2.04 0 0 Z " fill="#2E9F29" transform="translate(247,224)"/>
<path d="M0 0 C0.33 0.66 0.66 1.32 1 2 C2.65 1.67 4.3 1.34 6 1 C5.39816251 3.02045442 4.72693904 5.02111039 4 7 C3.01 7.495 3.01 7.495 2 8 C0.74335022 5.09399739 0 3.20395416 0 0 Z " fill="#4AA03E" transform="translate(151,183)"/>
<path d="M0 0 C0.66 0 1.32 0 2 0 C2.12375 0.639375 2.2475 1.27875 2.375 1.9375 C2.684375 2.9584375 2.684375 2.9584375 3 4 C3.66 4.33 4.32 4.66 5 5 C2.69 5.33 0.38 5.66 -2 6 C-1.34 4.02 -0.68 2.04 0 0 Z " fill="#2F6B3C" transform="translate(260,335)"/>
<path d="M0 0 C0.99 0.33 1.98 0.66 3 1 C2.34 1.66 1.68 2.32 1 3 C1 3.99 1 4.98 1 6 C0.01 6 -0.98 6 -2 6 C-2 4.35 -2 2.7 -2 1 C-1.34 0.67 -0.68 0.34 0 0 Z " fill="#2D9828" transform="translate(271,327)"/>
<path d="M0 0 C-0.33 1.32 -0.66 2.64 -1 4 C-2.65 4 -4.3 4 -6 4 C-6 3.01 -6 2.02 -6 1 C-3.92446352 0.4465236 -2.15634036 0 0 0 Z " fill="#E5EFE3" transform="translate(220,218)"/>
<path d="M0 0 C3 3.75 3 3.75 3 6 C0.36 5.67 -2.28 5.34 -5 5 C-3.68 4.67 -2.36 4.34 -1 4 C-0.67 2.68 -0.34 1.36 0 0 Z " fill="#63AF5B" transform="translate(192,196)"/>
<path d="M0 0 C4.75 0.75 4.75 0.75 7 3 C6.34 3 5.68 3 5 3 C5 3.66 5 4.32 5 5 C3.0625 4.1875 3.0625 4.1875 1 3 C0.67 2.01 0.34 1.02 0 0 Z " fill="#D7EAD6" transform="translate(166,193)"/>
<path d="M0 0 C0.99 0 1.98 0 3 0 C4.125 3.75 4.125 3.75 3 6 C1.35 6 -0.3 6 -2 6 C-1.01 4.68 -0.02 3.36 1 2 C0.67 1.34 0.34 0.68 0 0 Z " fill="#4EA447" transform="translate(332,192)"/>
<path d="M0 0 C1.32 0 2.64 0 4 0 C4 0.66 4 1.32 4 2 C3.34 2 2.68 2 2 2 C1.34 3.65 0.68 5.3 0 7 C-0.33 7 -0.66 7 -1 7 C-0.67 4.69 -0.34 2.38 0 0 Z " fill="#EAF7E8" transform="translate(364,184)"/>
<path d="M0 0 C4.95 0.99 4.95 0.99 10 2 C9.01 2.33 8.02 2.66 7 3 C6.67 3.66 6.34 4.32 6 5 C3.98079663 3.69593116 1.98075027 2.36176581 0 1 C0 0.67 0 0.34 0 0 Z " fill="#B4CAC5" transform="translate(216,174)"/>
<path d="M0 0 C2.64 0.66 5.28 1.32 8 2 C5.8614515 4.1385485 4.86724686 4.42655063 2 5 C1.34 3.35 0.68 1.7 0 0 Z " fill="#4AA447" transform="translate(184,224)"/>
<path d="M0 0 C0.66 0.33 1.32 0.66 2 1 C-1.61328125 5.6875 -1.61328125 5.6875 -3 7 C-3.99 7 -4.98 7 -6 7 C-4.55802132 4.11604263 -2.29355765 2.23474848 0 0 Z " fill="#C7E6C3" transform="translate(137,196)"/>
<path d="M0 0 C0.33 0.66 0.66 1.32 1 2 C1.66 2 2.32 2 3 2 C2.67 2.99 2.34 3.98 2 5 C1.34 5 0.68 5 0 5 C-1.34882408 5.63474075 -2.6846659 6.29848848 -4 7 C-2.68 4.69 -1.36 2.38 0 0 Z " fill="#DCEDD8" transform="translate(281,359)"/>
<path d="M0 0 C2.64 0 5.28 0 8 0 C7.34 1.98 6.68 3.96 6 6 C5.67 6 5.34 6 5 6 C5 4.35 5 2.7 5 1 C3.35 1 1.7 1 0 1 C0 0.67 0 0.34 0 0 Z " fill="#5BA45E" transform="translate(312,215)"/>
<path d="M0 0 C1.32 0.33 2.64 0.66 4 1 C4 1.66 4 2.32 4 3 C4.66 3 5.32 3 6 3 C6 4.32 6 5.64 6 7 C5.34 7 4.68 7 4 7 C2.02 3.535 2.02 3.535 0 0 Z " fill="#52A84E" transform="translate(362,196)"/>
</svg>
